<svg xmlns="http://www.w3.org/2000/svg" xmlns:xlink="http://www.w3.org/1999/xlink" version="1.2" width="210.00mm" height="148.00mm" viewBox="0.0000 -0.0000 55.5821 39.1722">
<style type="text/css">
<![CDATA[
tspan { white-space: pre; }
]]>
</style>
<g transform="translate(15.6742, 4.7130)">
<text font-family="serif" font-weight="bold" font-size="3.4924" text-anchor="start" fill="currentColor">
<tspan>Lavanda Azul</tspan>
</text>
</g>
<g transform="translate(1.8527, 11.0279)">
<line stroke-linejoin="round" stroke-linecap="round" stroke-width="0.0649" stroke="currentColor" x1="0.0324" y1="0" x2="51.8442" y2="0"/>
</g>
<g transform="translate(1.8527, 10.0279)">
<line stroke-linejoin="round" stroke-linecap="round" stroke-width="0.0649" stroke="currentColor" x1="0.0324" y1="0" x2="51.8442" y2="0"/>
</g>
<g transform="translate(1.8527, 9.0279)">
<line stroke-linejoin="round" stroke-linecap="round" stroke-width="0.0649" stroke="currentColor" x1="0.0324" y1="0" x2="51.8442" y2="0"/>
</g>
<g transform="translate(1.8527, 8.0279)">
<line stroke-linejoin="round" stroke-linecap="round" stroke-width="0.0649" stroke="currentColor" x1="0.0324" y1="0" x2="51.8442" y2="0"/>
</g>
<g transform="translate(1.8527, 7.0279)">
<line stroke-linejoin="round" stroke-linecap="round" stroke-width="0.0649" stroke="currentColor" x1="0.0324" y1="0" x2="51.8442" y2="0"/>
</g>
<g transform="translate(43.5053, 9.0279)">
<rect x="0.0000" y="-2.0000" width="0.1232" height="4.0324" ry="0.0000" fill="currentColor"/>
</g>
<g transform="translate(20.0971, 9.0279)">
<rect x="0.0000" y="-2.0000" width="0.1232" height="4.0324" ry="0.0000" fill="currentColor"/>
</g>
<g transform="translate(20.0971, 16.6326)">
<rect x="0.0000" y="-2.0324" width="0.1232" height="4.0324" ry="0.0000" fill="currentColor"/>
</g>
<g transform="translate(43.5053, 16.6326)">
<rect x="0.0000" y="-2.0324" width="0.1232" height="4.0324" ry="0.0000" fill="currentColor"/>
</g>
<g transform="translate(43.5053, 5.2479)">
<rect x="0.0000" y="5.8124" width="0.1232" height="3.5723" ry="0.0000" fill="currentColor"/>
</g>
<g transform="translate(20.0971, 5.2479)">
<rect x="0.0000" y="5.8124" width="0.1232" height="3.5723" ry="0.0000" fill="currentColor"/>
</g>
<g transform="translate(32.5888, 5.2479)">
<rect x="0.0000" y="5.8124" width="0.1232" height="3.5723" ry="0.0000" fill="currentColor"/>
</g>
<g transform="translate(53.6062, 9.0279)">
<rect x="0.0000" y="-2.0000" width="0.1232" height="4.0324" ry="0.0000" fill="currentColor"/>
</g>
<g transform="translate(53.6062, 16.6326)">
<rect x="0.0000" y="-2.0324" width="0.1232" height="4.0324" ry="0.0000" fill="currentColor"/>
</g>
<g transform="translate(32.5888, 16.6326)">
<rect x="0.0000" y="-2.0324" width="0.1232" height="4.0324" ry="0.0000" fill="currentColor"/>
</g>
<g transform="translate(32.5888, 9.0279)">
<rect x="0.0000" y="-2.0000" width="0.1232" height="4.0324" ry="0.0000" fill="currentColor"/>
</g>
<g transform="translate(53.6062, 5.2479)">
<rect x="0.0000" y="5.8124" width="0.1232" height="3.5723" ry="0.0000" fill="currentColor"/>
</g>
<g transform="translate(1.8527, 12.0279)">
<rect x="31.7341" y="-0.0824" width="1.5973" height="0.1649" ry="0.0824" fill="currentColor"/>
</g>
<g transform="translate(1.8527, 12.0279)">
<rect x="28.2060" y="-0.0824" width="1.5973" height="0.1649" ry="0.0824" fill="currentColor"/>
</g>
<g transform="translate(1.8527, 12.0279)">
<rect x="8.2901" y="-0.0824" width="1.5973" height="0.1649" ry="0.0824" fill="currentColor"/>
</g>
<g transform="translate(1.8527, 18.6326)">
<line stroke-linejoin="round" stroke-linecap="round" stroke-width="0.0649" stroke="currentColor" x1="0.0324" y1="0" x2="51.8442" y2="0"/>
</g>
<g transform="translate(1.8527, 17.6326)">
<line stroke-linejoin="round" stroke-linecap="round" stroke-width="0.0649" stroke="currentColor" x1="0.0324" y1="0" x2="51.8442" y2="0"/>
</g>
<g transform="translate(1.8527, 16.6326)">
<line stroke-linejoin="round" stroke-linecap="round" stroke-width="0.0649" stroke="currentColor" x1="0.0324" y1="0" x2="51.8442" y2="0"/>
</g>
<g transform="translate(1.8527, 15.6326)">
<line stroke-linejoin="round" stroke-linecap="round" stroke-width="0.0649" stroke="currentColor" x1="0.0324" y1="0" x2="51.8442" y2="0"/>
</g>
<g transform="translate(1.8527, 14.6326)">
<line stroke-linejoin="round" stroke-linecap="round" stroke-width="0.0649" stroke="currentColor" x1="0.0324" y1="0" x2="51.8442" y2="0"/>
</g>
<g transform="translate(25.2638, 7.8204)">
<polygon stroke-linejoin="round" stroke-linecap="round" stroke-width="0.0372" fill="currentColor" stroke="currentColor" points="6.1073 0.7786 6.1073 1.2214 0.0186 0.2214 0.0186 -0.2214"/>
</g>
<a style="color:inherit;" xlink:href="textedit:///home/kubuntu/Music/estudos-lilypond/conservatorio/lavanda-azul.ly:31:41:42">
<g transform="translate(37.7147, 9.5279)">
<circle stroke-linejoin="round" stroke-linecap="round" fill="currentColor" stroke="currentColor" stroke-width="0" r="0.5324"/>
</g>
<g color="rgb(100.0000%, 100.0000%, 100.0000%)">
<g transform="translate(37.4129, 9.8409)">
<text font-family="sans-serif" font-weight="bold" font-size="0.8732" text-anchor="start" fill="currentColor">
<tspan>A</tspan>
</text>
</g>
</g>
</a>
<g transform="translate(38.2049, 9.0279)">
<rect x="-0.0422" y="-3.0000" width="0.0843" height="3.3056" ry="0.0186" fill="currentColor"/>
</g>
<a style="color:inherit;" xlink:href="textedit:///home/kubuntu/Music/estudos-lilypond/conservatorio/lavanda-azul.ly:31:44:45">
<g transform="translate(40.7939, 9.5279)">
<circle stroke-linejoin="round" stroke-linecap="round" fill="currentColor" stroke="currentColor" stroke-width="0" r="0.5324"/>
</g>
<g color="rgb(100.0000%, 100.0000%, 100.0000%)">
<g transform="translate(40.4921, 9.8409)">
<text font-family="sans-serif" font-weight="bold" font-size="0.8732" text-anchor="start" fill="currentColor">
<tspan>A</tspan>
</text>
</g>
</g>
</a>
<g transform="translate(41.2841, 9.0279)">
<rect x="-0.0422" y="-3.0000" width="0.0843" height="3.3056" ry="0.0186" fill="currentColor"/>
</g>
<a style="color:inherit;" xlink:href="textedit:///home/kubuntu/Music/estudos-lilypond/conservatorio/lavanda-azul.ly:31:51:52">
<g transform="translate(45.1448, 9.5279)">
<circle stroke-linejoin="round" stroke-linecap="round" fill="currentColor" stroke="currentColor" stroke-width="0" r="0.5324"/>
</g>
<g color="rgb(100.0000%, 100.0000%, 100.0000%)">
<g transform="translate(45.1448, 9.5279)">
<circle stroke-linejoin="round" stroke-linecap="round" fill="currentColor" stroke="currentColor" stroke-width="0" r="0.4481"/>
</g>
</g>
<g transform="translate(44.8431, 9.8409)">
<text font-family="sans-serif" font-weight="bold" font-size="0.8732" text-anchor="start" fill="currentColor">
<tspan>A</tspan>
</text>
</g>
</a>
<g transform="translate(31.3476, 9.0279)">
<rect x="-0.0422" y="-0.2145" width="0.0843" height="3.0201" ry="0.0186" fill="currentColor"/>
</g>
<a style="color:inherit;" xlink:href="textedit:///home/kubuntu/Music/estudos-lilypond/conservatorio/lavanda-azul.ly:45:19:20">
<g transform="translate(34.3855, 15.6326)">
<circle stroke-linejoin="round" stroke-linecap="round" fill="currentColor" stroke="currentColor" stroke-width="0" r="0.5324"/>
</g>
<g color="rgb(100.0000%, 100.0000%, 100.0000%)">
<g transform="translate(34.3855, 15.6326)">
<circle stroke-linejoin="round" stroke-linecap="round" fill="currentColor" stroke="currentColor" stroke-width="0" r="0.4481"/>
</g>
</g>
<g transform="translate(34.1473, 15.9443)">
<text font-family="sans-serif" font-weight="bold" font-size="0.8732" text-anchor="start" fill="currentColor">
<tspan>F</tspan>
</text>
</g>
</a>
<a style="color:inherit;" xlink:href="textedit:///home/kubuntu/Music/estudos-lilypond/conservatorio/lavanda-azul.ly:31:37:38">
<g transform="translate(34.3855, 12.0279)">
<circle stroke-linejoin="round" stroke-linecap="round" fill="currentColor" stroke="currentColor" stroke-width="0" r="0.5324"/>
</g>
<g color="rgb(100.0000%, 100.0000%, 100.0000%)">
<g transform="translate(34.1076, 12.3396)">
<text font-family="sans-serif" font-weight="bold" font-size="0.8732" text-anchor="start" fill="currentColor">
<tspan>C</tspan>
</text>
</g>
</g>
</a>
<g transform="translate(34.8757, 9.0279)">
<rect x="-0.0422" y="-0.5000" width="0.0843" height="3.3056" ry="0.0186" fill="currentColor"/>
</g>
<g transform="translate(35.3747, 15.1326)">
<path transform="scale(0.0040, -0.0040)" d="M0 0c0 32 25 57 57 57s57 -25 57 -57s-25 -57 -57 -57s-57 25 -57 57z" fill="currentColor"/>
</g>
<g transform="translate(33.8952, 16.6326)">
<rect x="-0.0422" y="-0.7348" width="0.0843" height="3.2348" ry="0.0186" fill="currentColor"/>
</g>
<a style="color:inherit;" xlink:href="textedit:///home/kubuntu/Music/estudos-lilypond/conservatorio/lavanda-azul.ly:45:28:29">
<g transform="translate(48.1092, 16.1326)">
<circle stroke-linejoin="round" stroke-linecap="round" fill="currentColor" stroke="currentColor" stroke-width="0" r="0.5324"/>
</g>
<g color="rgb(100.0000%, 100.0000%, 100.0000%)">
<g transform="translate(47.8630, 16.4443)">
<text font-family="sans-serif" font-weight="bold" font-size="0.8732" text-anchor="start" fill="currentColor">
<tspan>E</tspan>
</text>
</g>
</g>
</a>
<g transform="translate(47.6189, 16.6326)">
<rect x="-0.0422" y="-0.3056" width="0.0843" height="3.3056" ry="0.0186" fill="currentColor"/>
</g>
<a style="color:inherit;" xlink:href="textedit:///home/kubuntu/Music/estudos-lilypond/conservatorio/lavanda-azul.ly:45:30:31">
<g transform="translate(51.1884, 16.6326)">
<circle stroke-linejoin="round" stroke-linecap="round" fill="currentColor" stroke="currentColor" stroke-width="0" r="0.5324"/>
</g>
<g color="rgb(100.0000%, 100.0000%, 100.0000%)">
<g transform="translate(50.8628, 16.9443)">
<text font-family="sans-serif" font-weight="bold" font-size="0.8732" text-anchor="start" fill="currentColor">
<tspan>D</tspan>
</text>
</g>
</g>
</a>
<g transform="translate(50.6981, 16.6326)">
<rect x="-0.0422" y="0.1944" width="0.0843" height="3.1390" ry="0.0186" fill="currentColor"/>
</g>
<a style="color:inherit;" xlink:href="textedit:///home/kubuntu/Music/estudos-lilypond/conservatorio/lavanda-azul.ly:45:25:26">
<g transform="translate(44.6124, 16.6326)">
<path transform="scale(0.0040, -0.0040)" d="M-4 79c0 59 125 82 125 181c0 24 -8 47 -24 67l-39 46c-2 3 -3 6 -3 9c0 7 7 14 14 14c3 0 7 -1 10 -5l152 -182c7 -8 10 -17 10 -25c0 -59 -125 -82 -125 -181c0 -24 8 -47 24 -67l87 -104c2 -3 3 -5 3 -8c0 -7 -7 -14 -14 -14c-6 0 -48 48 -112 48
c-14 0 -52 -1 -52 -70c0 -35 11 -75 28 -96c6 -7 -4 -16 -10 -9c-46 55 -93 150 -93 204c0 12 0 40 36 40c34 0 85 -15 130 -37l-137 164c-7 8 -10 17 -10 25z" fill="currentColor"/>
</g>
</a>
<g transform="translate(46.1340, 9.5279)">
<path transform="scale(0.0040, -0.0040)" d="M0 0c0 32 25 57 57 57s57 -25 57 -57s-25 -57 -57 -57s-57 25 -57 57z" fill="currentColor"/>
</g>
<g transform="translate(45.6351, 9.0279)">
<rect x="-0.0422" y="-3.0000" width="0.0843" height="3.2348" ry="0.0186" fill="currentColor"/>
</g>
<a style="color:inherit;" xlink:href="textedit:///home/kubuntu/Music/estudos-lilypond/conservatorio/lavanda-azul.ly:24:2:3">
<g transform="translate(6.9798, 9.0279)">
<path transform="scale(0.0040, -0.0040)" d="M258 264c0 -31 68 -19 68 -124c0 -91 -77 -140 -175 -140c-77 0 -151 41 -151 111c0 36 29 65 65 65s65 -29 65 -65c0 -25 -40 -28 -40 -53c0 -26 31 -37 61 -37c50 0 66 61 66 119c0 62 -1 110 -54 110h-82c-9 0 -13 7 -13 14s4 13 13 13h82c52 0 54 47 54 108
c0 56 -18 94 -70 94c-27 0 -55 -9 -55 -33c0 -22 35 -25 35 -47c0 -32 -25 -57 -57 -57s-57 25 -57 57c0 63 65 101 134 101c90 0 165 -35 165 -115c0 -126 -54 -81 -54 -121z" fill="currentColor"/>
</g>
<g transform="translate(6.8527, 11.0439)">
<path transform="scale(0.0040, -0.0040)" d="M-2 146c0 13 148 151 148 339c0 10 7 18 15 15c22 -7 44 -13 67 -13s45 6 67 13c12 4 21 -8 15 -15l-283 -333h173v147c0 32 34 24 65 67c11 15 18 32 25 49c4 9 20 7 20 -7v-256h68c9 0 13 -7 13 -14s-4 -13 -13 -13h-68v-16c0 -45 26 -88 68 -88c7 0 10 -5 10 -10
s-3 -11 -10 -11c-41 0 -82 13 -123 13s-82 -13 -123 -13c-7 0 -10 6 -10 11s3 10 10 10c42 0 68 43 68 88v16h-173c-21 0 -29 13 -29 21z" fill="currentColor"/>
</g>
</a>
<a style="color:inherit;" xlink:href="textedit:///home/kubuntu/Music/estudos-lilypond/conservatorio/lavanda-azul.ly:31:6:7">
<g transform="translate(14.2707, 10.0279)">
<circle stroke-linejoin="round" stroke-linecap="round" fill="currentColor" stroke="currentColor" stroke-width="0" r="0.5324"/>
</g>
<g color="rgb(100.0000%, 100.0000%, 100.0000%)">
<g transform="translate(13.9531, 10.3396)">
<text font-family="sans-serif" font-weight="bold" font-size="0.8732" text-anchor="start" fill="currentColor">
<tspan>G</tspan>
</text>
</g>
</g>
</a>
<g transform="translate(14.7609, 9.0279)">
<rect x="-0.0422" y="-2.5000" width="0.0843" height="3.3056" ry="0.0186" fill="currentColor"/>
</g>
<a style="color:inherit;" xlink:href="textedit:///home/kubuntu/Music/estudos-lilypond/conservatorio/lavanda-azul.ly:22:2:3">
</a>
<a style="color:inherit;" xlink:href="textedit:///home/kubuntu/Music/estudos-lilypond/conservatorio/lavanda-azul.ly:31:9:10">
<g transform="translate(17.3499, 10.0279)">
<circle stroke-linejoin="round" stroke-linecap="round" fill="currentColor" stroke="currentColor" stroke-width="0" r="0.5324"/>
</g>
<g color="rgb(100.0000%, 100.0000%, 100.0000%)">
<g transform="translate(17.0323, 10.3396)">
<text font-family="sans-serif" font-weight="bold" font-size="0.8732" text-anchor="start" fill="currentColor">
<tspan>G</tspan>
</text>
</g>
</g>
</a>
<g transform="translate(17.8401, 9.0279)">
<rect x="-0.0422" y="-2.5000" width="0.0843" height="3.3056" ry="0.0186" fill="currentColor"/>
</g>
<g transform="translate(2.6527, 10.0279)">
<path transform="scale(0.0040, -0.0040)" d="M264 -594c47 0 165 26 165 246c0 32 -2 64 -5 96c-5 -1 -44 -8 -89 -8c-193 0 -333 178 -333 372c0 178 133 306 251 440c-27 93 -49 170 -49 345c0 116 55 226 150 295c5 4 11 4 16 0c67 -81 132 -246 132 -359c0 -144 -87 -256 -183 -365c20 -69 39 -138 55 -208
c2 0 7 1 15 1c154 0 254 -127 254 -259c0 -112 -73 -212 -180 -245c3 -36 5 -72 5 -108c0 -19 0 -37 -1 -56c-7 -120 -89 -226 -206 -226c-108 0 -195 87 -195 195c0 58 53 104 112 104c54 0 95 -48 95 -104c0 -52 -43 -95 -95 -95c-12 0 -24 4 -35 9c26 -41 70 -70 121 -70
zM459 -205c71 24 117 92 117 166c0 92 -69 184 -179 193c1 -5 45 -212 62 -359zM71 31c0 -146 142 -251 267 -251c1 0 46 0 82 6c-7 63 -28 201 -64 367c-79 -9 -125 -62 -125 -121c0 -44 26 -92 82 -124c4 -4 7 -9 7 -14c0 -11 -9 -21 -20 -21c-14 0 -125 62 -125 186
c0 88 57 173 158 196c-14 60 -30 119 -46 178c-108 -121 -216 -242 -216 -402zM411 1050c-99 -50 -161 -151 -161 -262c0 -59 11 -123 33 -200c82 97 149 198 149 325c0 35 0 69 -21 137z" fill="currentColor"/>
</g>
<a style="color:inherit;" xlink:href="textedit:///home/kubuntu/Music/estudos-lilypond/conservatorio/lavanda-azul.ly:31:31:32">
<g transform="translate(30.8573, 12.0279)">
<circle stroke-linejoin="round" stroke-linecap="round" fill="currentColor" stroke="currentColor" stroke-width="0" r="0.5324"/>
</g>
<g color="rgb(100.0000%, 100.0000%, 100.0000%)">
<g transform="translate(30.5794, 12.3396)">
<text font-family="sans-serif" font-weight="bold" font-size="0.8732" text-anchor="start" fill="currentColor">
<tspan>C</tspan>
</text>
</g>
</g>
</a>
<a style="color:inherit;" xlink:href="textedit:///home/kubuntu/Music/estudos-lilypond/conservatorio/lavanda-azul.ly:31:17:18">
<g transform="translate(21.7365, 10.0279)">
<circle stroke-linejoin="round" stroke-linecap="round" fill="currentColor" stroke="currentColor" stroke-width="0" r="0.5324"/>
</g>
<g color="rgb(100.0000%, 100.0000%, 100.0000%)">
<g transform="translate(21.4189, 10.3396)">
<text font-family="sans-serif" font-weight="bold" font-size="0.8732" text-anchor="start" fill="currentColor">
<tspan>G</tspan>
</text>
</g>
</g>
</a>
<a style="color:inherit;" xlink:href="textedit:///home/kubuntu/Music/estudos-lilypond/conservatorio/lavanda-azul.ly:45:13:14">
<g transform="translate(21.2041, 16.6326)">
<path transform="scale(0.0040, -0.0040)" d="M367 0h-359c-4 0 -8 4 -8 8v140c0 4 4 8 8 8h359c4 0 8 -4 8 -8v-140c0 -4 -4 -8 -8 -8z" fill="currentColor"/>
</g>
</a>
<a style="color:inherit;" xlink:href="textedit:///home/kubuntu/Music/estudos-lilypond/conservatorio/lavanda-azul.ly:31:2:3">
<g transform="translate(10.9415, 12.0279)">
<circle stroke-linejoin="round" stroke-linecap="round" fill="currentColor" stroke="currentColor" stroke-width="0" r="0.5324"/>
</g>
<g color="rgb(100.0000%, 100.0000%, 100.0000%)">
<g transform="translate(10.6636, 12.3396)">
<text font-family="sans-serif" font-weight="bold" font-size="0.8732" text-anchor="start" fill="currentColor">
<tspan>C</tspan>
</text>
</g>
</g>
</a>
<g transform="translate(10.4512, 16.6326)">
<rect x="-0.0422" y="-1.2348" width="0.0843" height="4.9015" ry="0.0186" fill="currentColor"/>
</g>
<a style="color:inherit;" xlink:href="textedit:///home/kubuntu/Music/estudos-lilypond/conservatorio/lavanda-azul.ly:22:2:3">
</a>
<g transform="translate(2.6527, 15.6326)">
<path transform="scale(0.0040, -0.0040)" d="M556 -125c0 29 23 52 52 52s52 -23 52 -52s-23 -52 -52 -52s-52 23 -52 52zM556 125c0 29 23 52 52 52s52 -23 52 -52s-23 -52 -52 -52s-52 23 -52 52zM233 261c171 0 292 -86 292 -248c0 -263 -264 -415 -517 -521c-2 -2 -5 -3 -8 -3c-6 0 -11 5 -11 11c0 3 1 6 3 8
c203 118 415 265 415 494c0 121 -64 237 -174 237c-79 0 -138 -57 -164 -133c14 8 28 13 43 13c55 0 100 -45 100 -100c0 -58 -44 -107 -100 -107c-60 0 -112 48 -112 107c0 132 103 242 233 242z" fill="currentColor"/>
</g>
<a style="color:inherit;" xlink:href="textedit:///home/kubuntu/Music/estudos-lilypond/conservatorio/lavanda-azul.ly:24:2:3">
<g transform="translate(6.9798, 16.6326)">
<path transform="scale(0.0040, -0.0040)" d="M258 264c0 -31 68 -19 68 -124c0 -91 -77 -140 -175 -140c-77 0 -151 41 -151 111c0 36 29 65 65 65s65 -29 65 -65c0 -25 -40 -28 -40 -53c0 -26 31 -37 61 -37c50 0 66 61 66 119c0 62 -1 110 -54 110h-82c-9 0 -13 7 -13 14s4 13 13 13h82c52 0 54 47 54 108
c0 56 -18 94 -70 94c-27 0 -55 -9 -55 -33c0 -22 35 -25 35 -47c0 -32 -25 -57 -57 -57s-57 25 -57 57c0 63 65 101 134 101c90 0 165 -35 165 -115c0 -126 -54 -81 -54 -121z" fill="currentColor"/>
</g>
<g transform="translate(6.8527, 18.6486)">
<path transform="scale(0.0040, -0.0040)" d="M-2 146c0 13 148 151 148 339c0 10 7 18 15 15c22 -7 44 -13 67 -13s45 6 67 13c12 4 21 -8 15 -15l-283 -333h173v147c0 32 34 24 65 67c11 15 18 32 25 49c4 9 20 7 20 -7v-256h68c9 0 13 -7 13 -14s-4 -13 -13 -13h-68v-16c0 -45 26 -88 68 -88c7 0 10 -5 10 -10
s-3 -11 -10 -11c-41 0 -82 13 -123 13s-82 -13 -123 -13c-7 0 -10 6 -10 11s3 10 10 10c42 0 68 43 68 88v16h-173c-21 0 -29 13 -29 21z" fill="currentColor"/>
</g>
</a>
<g transform="translate(11.4317, 9.0279)">
<rect x="-0.0422" y="-0.5000" width="0.0843" height="3.3056" ry="0.0186" fill="currentColor"/>
</g>
<a style="color:inherit;" xlink:href="textedit:///home/kubuntu/Music/estudos-lilypond/conservatorio/lavanda-azul.ly:45:6:7">
<g transform="translate(10.9415, 15.1326)">
<circle stroke-linejoin="round" stroke-linecap="round" fill="currentColor" stroke="currentColor" stroke-width="0" r="0.5324"/>
</g>
<g color="rgb(100.0000%, 100.0000%, 100.0000%)">
<g transform="translate(10.9415, 15.1326)">
<circle stroke-linejoin="round" stroke-linecap="round" fill="currentColor" stroke="currentColor" stroke-width="0" r="0.4481"/>
</g>
</g>
<g transform="translate(10.6239, 15.4443)">
<text font-family="sans-serif" font-weight="bold" font-size="0.8732" text-anchor="start" fill="currentColor">
<tspan>G</tspan>
</text>
</g>
</a>
<g transform="translate(11.9307, 17.1326)">
<path transform="scale(0.0040, -0.0040)" d="M0 0c0 32 25 57 57 57s57 -25 57 -57s-25 -57 -57 -57s-57 25 -57 57z" fill="currentColor"/>
</g>
<a style="color:inherit;" xlink:href="textedit:///home/kubuntu/Music/estudos-lilypond/conservatorio/lavanda-azul.ly:45:3:4">
<g transform="translate(10.9415, 17.1326)">
<circle stroke-linejoin="round" stroke-linecap="round" fill="currentColor" stroke="currentColor" stroke-width="0" r="0.5324"/>
</g>
<g color="rgb(100.0000%, 100.0000%, 100.0000%)">
<g transform="translate(10.9415, 17.1326)">
<circle stroke-linejoin="round" stroke-linecap="round" fill="currentColor" stroke="currentColor" stroke-width="0" r="0.4481"/>
</g>
</g>
<g transform="translate(10.6636, 17.4443)">
<text font-family="sans-serif" font-weight="bold" font-size="0.8732" text-anchor="start" fill="currentColor">
<tspan>C</tspan>
</text>
</g>
</a>
<g transform="translate(11.9307, 15.1326)">
<path transform="scale(0.0040, -0.0040)" d="M0 0c0 32 25 57 57 57s57 -25 57 -57s-25 -57 -57 -57s-57 25 -57 57z" fill="currentColor"/>
</g>
<a style="color:inherit;" xlink:href="textedit:///home/kubuntu/Music/estudos-lilypond/conservatorio/lavanda-azul.ly:31:21:22">
<g transform="translate(24.8157, 10.5279)">
<circle stroke-linejoin="round" stroke-linecap="round" fill="currentColor" stroke="currentColor" stroke-width="0" r="0.5324"/>
</g>
<g color="rgb(100.0000%, 100.0000%, 100.0000%)">
<g transform="translate(24.5775, 10.8396)">
<text font-family="sans-serif" font-weight="bold" font-size="0.8732" text-anchor="start" fill="currentColor">
<tspan>F</tspan>
</text>
</g>
</g>
</a>
<g transform="translate(25.3060, 9.0279)">
<rect x="-0.0422" y="-1.2007" width="0.0843" height="2.5063" ry="0.0186" fill="currentColor"/>
</g>
<g transform="translate(1.8490, 12.8303)">
<rect x="0.0000" y="-5.8348" width="0.1038" height="11.6696" ry="0.0324" fill="currentColor"/>
</g>
<a style="color:inherit;" xlink:href="textedit:///home/kubuntu/Music/estudos-lilypond/conservatorio/lavanda-azul.ly:31:25:26">
<g transform="translate(26.8296, 11.0279)">
<circle stroke-linejoin="round" stroke-linecap="round" fill="currentColor" stroke="currentColor" stroke-width="0" r="0.5324"/>
</g>
<g color="rgb(100.0000%, 100.0000%, 100.0000%)">
<g transform="translate(26.5835, 11.3396)">
<text font-family="sans-serif" font-weight="bold" font-size="0.8732" text-anchor="start" fill="currentColor">
<tspan>E</tspan>
</text>
</g>
</g>
</a>
<g transform="translate(27.3199, 9.0279)">
<rect x="-0.0422" y="-0.8719" width="0.0843" height="2.6776" ry="0.0186" fill="currentColor"/>
</g>
<g transform="translate(1.5490, 12.8303)">
<path transform="scale(0.0040, -0.0040)" d="M-81 -324c0 228 -120 321 -120 324c0 18 120 84 120 324c0 231 -96 429 -96 687c0 171 42 333 165 450c15 15 39 -9 24 -24c-90 -87 -120 -198 -120 -318c0 -228 90 -423 90 -675c0 -168 -42 -327 -159 -444c117 -117 159 -276 159 -444c0 -252 -90 -447 -90 -675
c0 -120 30 -231 120 -318c15 -15 -9 -39 -24 -24c-123 117 -165 279 -165 450c0 258 96 456 96 687z" fill="currentColor"/>
</g>
<a style="color:inherit;" xlink:href="textedit:///home/kubuntu/Music/estudos-lilypond/conservatorio/lavanda-azul.ly:31:28:29">
<g transform="translate(28.8435, 11.5279)">
<circle stroke-linejoin="round" stroke-linecap="round" fill="currentColor" stroke="currentColor" stroke-width="0" r="0.5324"/>
</g>
<g color="rgb(100.0000%, 100.0000%, 100.0000%)">
<g transform="translate(28.5179, 11.8396)">
<text font-family="sans-serif" font-weight="bold" font-size="0.8732" text-anchor="start" fill="currentColor">
<tspan>D</tspan>
</text>
</g>
</g>
</a>
<g transform="translate(29.3337, 9.0279)">
<rect x="-0.0422" y="-0.5432" width="0.0843" height="2.8488" ry="0.0186" fill="currentColor"/>
</g>
<g transform="translate(22.2268, 9.0279)">
<rect x="-0.0422" y="-2.5000" width="0.0843" height="3.3056" ry="0.0186" fill="currentColor"/>
</g>
<g transform="translate(23.1609, 16.1326)">
<path transform="scale(0.0040, -0.0040)" d="M0 0c0 32 25 57 57 57s57 -25 57 -57s-25 -57 -57 -57s-57 25 -57 57z" fill="currentColor"/>
</g>
<g transform="translate(1.8527, 27.8421)">
<line stroke-linejoin="round" stroke-linecap="round" stroke-width="0.0649" stroke="currentColor" x1="0.0324" y1="0" x2="51.8442" y2="0"/>
</g>
<g transform="translate(1.8527, 26.8421)">
<line stroke-linejoin="round" stroke-linecap="round" stroke-width="0.0649" stroke="currentColor" x1="0.0324" y1="0" x2="51.8442" y2="0"/>
</g>
<g transform="translate(1.8527, 25.8421)">
<line stroke-linejoin="round" stroke-linecap="round" stroke-width="0.0649" stroke="currentColor" x1="0.0324" y1="0" x2="51.8442" y2="0"/>
</g>
<g transform="translate(1.8527, 24.8421)">
<line stroke-linejoin="round" stroke-linecap="round" stroke-width="0.0649" stroke="currentColor" x1="0.0324" y1="0" x2="51.8442" y2="0"/>
</g>
<g transform="translate(1.8527, 23.8421)">
<line stroke-linejoin="round" stroke-linecap="round" stroke-width="0.0649" stroke="currentColor" x1="0.0324" y1="0" x2="51.8442" y2="0"/>
</g>
<g transform="translate(31.3637, 25.8421)">
<rect x="0.0000" y="-2.0000" width="0.1232" height="4.0324" ry="0.0000" fill="currentColor"/>
</g>
<g transform="translate(31.3637, 33.4468)">
<rect x="0.0000" y="-2.0324" width="0.1232" height="4.0324" ry="0.0000" fill="currentColor"/>
</g>
<g transform="translate(18.0878, 21.5454)">
<rect x="0.0000" y="6.3291" width="0.1232" height="3.5723" ry="0.0000" fill="currentColor"/>
</g>
<g transform="translate(31.3637, 21.5454)">
<rect x="0.0000" y="6.3291" width="0.1232" height="3.5723" ry="0.0000" fill="currentColor"/>
</g>
<g transform="translate(18.0878, 33.4468)">
<rect x="0.0000" y="-2.0324" width="0.1232" height="4.0324" ry="0.0000" fill="currentColor"/>
</g>
<g transform="translate(18.0878, 25.8421)">
<rect x="0.0000" y="-2.0000" width="0.1232" height="4.0324" ry="0.0000" fill="currentColor"/>
</g>
<g transform="translate(42.6924, 25.8421)">
<rect x="0.0000" y="-2.0000" width="0.1232" height="4.0324" ry="0.0000" fill="currentColor"/>
</g>
<g transform="translate(42.6924, 33.4468)">
<rect x="0.0000" y="-2.0324" width="0.1232" height="4.0324" ry="0.0000" fill="currentColor"/>
</g>
<g transform="translate(42.6924, 21.5454)">
<rect x="0.0000" y="6.3291" width="0.1232" height="3.5723" ry="0.0000" fill="currentColor"/>
</g>
<g transform="translate(53.6062, 25.8421)">
<rect x="0.0000" y="-2.0000" width="0.1232" height="4.0324" ry="0.0000" fill="currentColor"/>
</g>
<g transform="translate(53.6062, 33.4468)">
<rect x="0.0000" y="-2.0324" width="0.1232" height="4.0324" ry="0.0000" fill="currentColor"/>
</g>
<g transform="translate(53.6062, 21.5454)">
<rect x="0.0000" y="6.3291" width="0.1232" height="3.5723" ry="0.0000" fill="currentColor"/>
</g>
<g transform="translate(1.8527, 35.4468)">
<line stroke-linejoin="round" stroke-linecap="round" stroke-width="0.0649" stroke="currentColor" x1="0.0324" y1="0" x2="51.8442" y2="0"/>
</g>
<g transform="translate(1.8527, 34.4468)">
<line stroke-linejoin="round" stroke-linecap="round" stroke-width="0.0649" stroke="currentColor" x1="0.0324" y1="0" x2="51.8442" y2="0"/>
</g>
<g transform="translate(1.8527, 33.4468)">
<line stroke-linejoin="round" stroke-linecap="round" stroke-width="0.0649" stroke="currentColor" x1="0.0324" y1="0" x2="51.8442" y2="0"/>
</g>
<g transform="translate(1.8527, 32.4468)">
<line stroke-linejoin="round" stroke-linecap="round" stroke-width="0.0649" stroke="currentColor" x1="0.0324" y1="0" x2="51.8442" y2="0"/>
</g>
<g transform="translate(1.8527, 31.4468)">
<line stroke-linejoin="round" stroke-linecap="round" stroke-width="0.0649" stroke="currentColor" x1="0.0324" y1="0" x2="51.8442" y2="0"/>
</g>
<g transform="translate(1.8527, 28.8421)">
<rect x="26.8636" y="-0.0824" width="1.5973" height="0.1649" ry="0.0824" fill="currentColor"/>
</g>
<g transform="translate(1.8527, 28.8421)">
<rect x="5.5338" y="-0.0824" width="1.5973" height="0.1649" ry="0.0824" fill="currentColor"/>
</g>
<a style="color:inherit;" xlink:href="textedit:///home/kubuntu/Music/estudos-lilypond/conservatorio/lavanda-azul.ly:33:41:42">
<g transform="translate(36.5822, 26.8421)">
<circle stroke-linejoin="round" stroke-linecap="round" fill="currentColor" stroke="currentColor" stroke-width="0" r="0.5324"/>
</g>
<g color="rgb(100.0000%, 100.0000%, 100.0000%)">
<g transform="translate(36.2646, 27.1538)">
<text font-family="sans-serif" font-weight="bold" font-size="0.8732" text-anchor="start" fill="currentColor">
<tspan>G</tspan>
</text>
</g>
</g>
</a>
<g transform="translate(37.0725, 25.8421)">
<rect x="-0.0422" y="-2.5000" width="0.0843" height="3.3056" ry="0.0186" fill="currentColor"/>
</g>
<a style="color:inherit;" xlink:href="textedit:///home/kubuntu/Music/estudos-lilypond/conservatorio/lavanda-azul.ly:33:44:45">
<g transform="translate(39.6605, 27.8421)">
<circle stroke-linejoin="round" stroke-linecap="round" fill="currentColor" stroke="currentColor" stroke-width="0" r="0.5324"/>
</g>
<g color="rgb(100.0000%, 100.0000%, 100.0000%)">
<g transform="translate(39.4143, 28.1538)">
<text font-family="sans-serif" font-weight="bold" font-size="0.8732" text-anchor="start" fill="currentColor">
<tspan>E</tspan>
</text>
</g>
</g>
</a>
<g transform="translate(40.1507, 25.8421)">
<rect x="-0.0422" y="-1.5000" width="0.0843" height="3.3056" ry="0.0186" fill="currentColor"/>
</g>
<a style="color:inherit;" xlink:href="textedit:///home/kubuntu/Music/estudos-lilypond/conservatorio/lavanda-azul.ly:33:31:32">
<g transform="translate(29.5150, 28.8421)">
<circle stroke-linejoin="round" stroke-linecap="round" fill="currentColor" stroke="currentColor" stroke-width="0" r="0.5324"/>
</g>
<g color="rgb(100.0000%, 100.0000%, 100.0000%)">
<g transform="translate(29.2371, 29.1538)">
<text font-family="sans-serif" font-weight="bold" font-size="0.8732" text-anchor="start" fill="currentColor">
<tspan>C</tspan>
</text>
</g>
</g>
</a>
<g transform="translate(30.0053, 25.8421)">
<rect x="-0.0422" y="-0.2141" width="0.0843" height="3.0197" ry="0.0186" fill="currentColor"/>
</g>
<a style="color:inherit;" xlink:href="textedit:///home/kubuntu/Music/estudos-lilypond/conservatorio/lavanda-azul.ly:33:37:38">
<g transform="translate(33.2540, 27.3421)">
<circle stroke-linejoin="round" stroke-linecap="round" fill="currentColor" stroke="currentColor" stroke-width="0" r="0.5324"/>
</g>
<g color="rgb(100.0000%, 100.0000%, 100.0000%)">
<g transform="translate(33.0158, 27.6538)">
<text font-family="sans-serif" font-weight="bold" font-size="0.8732" text-anchor="start" fill="currentColor">
<tspan>F</tspan>
</text>
</g>
</g>
</a>
<g transform="translate(23.5695, 24.6345)">
<polygon stroke-linejoin="round" stroke-linecap="round" stroke-width="0.0372" fill="currentColor" stroke="currentColor" points="6.4593 0.7786 6.4593 1.2214 0.0186 0.2214 0.0186 -0.2214"/>
</g>
<a style="color:inherit;" xlink:href="textedit:///home/kubuntu/Music/estudos-lilypond/conservatorio/lavanda-azul.ly:47:17:18">
<g transform="translate(33.2540, 31.9468)">
<circle stroke-linejoin="round" stroke-linecap="round" fill="currentColor" stroke="currentColor" stroke-width="0" r="0.5324"/>
</g>
<g color="rgb(100.0000%, 100.0000%, 100.0000%)">
<g transform="translate(33.2540, 31.9468)">
<circle stroke-linejoin="round" stroke-linecap="round" fill="currentColor" stroke="currentColor" stroke-width="0" r="0.4481"/>
</g>
</g>
<g transform="translate(32.9364, 32.2585)">
<text font-family="sans-serif" font-weight="bold" font-size="0.8732" text-anchor="start" fill="currentColor">
<tspan>G</tspan>
</text>
</g>
</a>
<g transform="translate(33.7443, 25.8421)">
<rect x="-0.0422" y="-2.0000" width="0.0843" height="3.3056" ry="0.0186" fill="currentColor"/>
</g>
<g transform="translate(34.2432, 31.9468)">
<path transform="scale(0.0040, -0.0040)" d="M0 0c0 32 25 57 57 57s57 -25 57 -57s-25 -57 -57 -57s-57 25 -57 57z" fill="currentColor"/>
</g>
<g transform="translate(32.7638, 33.4468)">
<rect x="-0.0422" y="-1.2348" width="0.0843" height="3.2348" ry="0.0186" fill="currentColor"/>
</g>
<a style="color:inherit;" xlink:href="textedit:///home/kubuntu/Music/estudos-lilypond/conservatorio/lavanda-azul.ly:33:51:52">
<g transform="translate(44.3978, 28.3421)">
<circle stroke-linejoin="round" stroke-linecap="round" fill="currentColor" stroke="currentColor" stroke-width="0" r="0.5324"/>
</g>
<g color="rgb(100.0000%, 100.0000%, 100.0000%)">
<g transform="translate(44.3978, 28.3421)">
<circle stroke-linejoin="round" stroke-linecap="round" fill="currentColor" stroke="currentColor" stroke-width="0" r="0.4481"/>
</g>
</g>
<g transform="translate(44.0723, 28.6538)">
<text font-family="sans-serif" font-weight="bold" font-size="0.8732" text-anchor="start" fill="currentColor">
<tspan>D</tspan>
</text>
</g>
</a>
<g transform="translate(50.4491, 33.4468)">
<rect x="-0.0422" y="0.1944" width="0.0843" height="3.1390" ry="0.0186" fill="currentColor"/>
</g>
<a style="color:inherit;" xlink:href="textedit:///home/kubuntu/Music/estudos-lilypond/conservatorio/lavanda-azul.ly:47:26:27">
<g transform="translate(47.6112, 32.9468)">
<circle stroke-linejoin="round" stroke-linecap="round" fill="currentColor" stroke="currentColor" stroke-width="0" r="0.5324"/>
</g>
<g color="rgb(100.0000%, 100.0000%, 100.0000%)">
<g transform="translate(47.3650, 33.2585)">
<text font-family="sans-serif" font-weight="bold" font-size="0.8732" text-anchor="start" fill="currentColor">
<tspan>E</tspan>
</text>
</g>
</g>
</a>
<g transform="translate(47.1209, 33.4468)">
<rect x="-0.0422" y="-0.3056" width="0.0843" height="3.3056" ry="0.0186" fill="currentColor"/>
</g>
<a style="color:inherit;" xlink:href="textedit:///home/kubuntu/Music/estudos-lilypond/conservatorio/lavanda-azul.ly:47:28:29">
<g transform="translate(50.9394, 33.4468)">
<circle stroke-linejoin="round" stroke-linecap="round" fill="currentColor" stroke="currentColor" stroke-width="0" r="0.5324"/>
</g>
<g color="rgb(100.0000%, 100.0000%, 100.0000%)">
<g transform="translate(50.6138, 33.7585)">
<text font-family="sans-serif" font-weight="bold" font-size="0.8732" text-anchor="start" fill="currentColor">
<tspan>D</tspan>
</text>
</g>
</g>
</a>
<a style="color:inherit;" xlink:href="textedit:///home/kubuntu/Music/estudos-lilypond/conservatorio/lavanda-azul.ly:47:23:24">
<g transform="translate(43.8654, 33.4468)">
<path transform="scale(0.0040, -0.0040)" d="M-4 79c0 59 125 82 125 181c0 24 -8 47 -24 67l-39 46c-2 3 -3 6 -3 9c0 7 7 14 14 14c3 0 7 -1 10 -5l152 -182c7 -8 10 -17 10 -25c0 -59 -125 -82 -125 -181c0 -24 8 -47 24 -67l87 -104c2 -3 3 -5 3 -8c0 -7 -7 -14 -14 -14c-6 0 -48 48 -112 48
c-14 0 -52 -1 -52 -70c0 -35 11 -75 28 -96c6 -7 -4 -16 -10 -9c-46 55 -93 150 -93 204c0 12 0 40 36 40c34 0 85 -15 130 -37l-137 164c-7 8 -10 17 -10 25z" fill="currentColor"/>
</g>
</a>
<g transform="translate(45.3870, 28.3421)">
<path transform="scale(0.0040, -0.0040)" d="M0 0c0 32 25 57 57 57s57 -25 57 -57s-25 -57 -57 -57s-57 25 -57 57z" fill="currentColor"/>
</g>
<g transform="translate(44.8881, 25.8421)">
<rect x="-0.0422" y="-1.0000" width="0.0843" height="3.2348" ry="0.0186" fill="currentColor"/>
</g>
<a style="color:inherit;" xlink:href="textedit:///home/kubuntu/Music/estudos-lilypond/conservatorio/lavanda-azul.ly:33:6:7">
<g transform="translate(11.7634, 26.8421)">
<circle stroke-linejoin="round" stroke-linecap="round" fill="currentColor" stroke="currentColor" stroke-width="0" r="0.5324"/>
</g>
<g color="rgb(100.0000%, 100.0000%, 100.0000%)">
<g transform="translate(11.4458, 27.1538)">
<text font-family="sans-serif" font-weight="bold" font-size="0.8732" text-anchor="start" fill="currentColor">
<tspan>G</tspan>
</text>
</g>
</g>
</a>
<a style="color:inherit;" xlink:href="textedit:///home/kubuntu/Music/estudos-lilypond/conservatorio/lavanda-azul.ly:47:6:7">
<g transform="translate(8.1852, 31.9468)">
<circle stroke-linejoin="round" stroke-linecap="round" fill="currentColor" stroke="currentColor" stroke-width="0" r="0.5324"/>
</g>
<g color="rgb(100.0000%, 100.0000%, 100.0000%)">
<g transform="translate(8.1852, 31.9468)">
<circle stroke-linejoin="round" stroke-linecap="round" fill="currentColor" stroke="currentColor" stroke-width="0" r="0.4481"/>
</g>
</g>
<g transform="translate(7.8676, 32.2585)">
<text font-family="sans-serif" font-weight="bold" font-size="0.8732" text-anchor="start" fill="currentColor">
<tspan>G</tspan>
</text>
</g>
</a>
<g transform="translate(8.6754, 25.8421)">
<rect x="-0.0422" y="-0.5000" width="0.0843" height="3.3056" ry="0.0186" fill="currentColor"/>
</g>
<g transform="translate(9.1744, 33.9468)">
<path transform="scale(0.0040, -0.0040)" d="M0 0c0 32 25 57 57 57s57 -25 57 -57s-25 -57 -57 -57s-57 25 -57 57z" fill="currentColor"/>
</g>
<g transform="translate(7.6949, 33.4468)">
<rect x="-0.0422" y="-1.2348" width="0.0843" height="4.9015" ry="0.0186" fill="currentColor"/>
</g>
<g transform="translate(9.1744, 31.9468)">
<path transform="scale(0.0040, -0.0040)" d="M0 0c0 32 25 57 57 57s57 -25 57 -57s-25 -57 -57 -57s-57 25 -57 57z" fill="currentColor"/>
</g>
<a style="color:inherit;" xlink:href="textedit:///home/kubuntu/Music/estudos-lilypond/conservatorio/lavanda-azul.ly:47:3:4">
<g transform="translate(8.1852, 33.9468)">
<circle stroke-linejoin="round" stroke-linecap="round" fill="currentColor" stroke="currentColor" stroke-width="0" r="0.5324"/>
</g>
<g color="rgb(100.0000%, 100.0000%, 100.0000%)">
<g transform="translate(8.1852, 33.9468)">
<circle stroke-linejoin="round" stroke-linecap="round" fill="currentColor" stroke="currentColor" stroke-width="0" r="0.4481"/>
</g>
</g>
<g transform="translate(7.9073, 34.2585)">
<text font-family="sans-serif" font-weight="bold" font-size="0.8732" text-anchor="start" fill="currentColor">
<tspan>C</tspan>
</text>
</g>
</a>
<g transform="translate(12.2536, 25.8421)">
<rect x="-0.0422" y="-2.5000" width="0.0843" height="3.3056" ry="0.0186" fill="currentColor"/>
</g>
<a style="color:inherit;" xlink:href="textedit:///home/kubuntu/Music/estudos-lilypond/conservatorio/lavanda-azul.ly:33:9:10">
<g transform="translate(15.0916, 26.8421)">
<circle stroke-linejoin="round" stroke-linecap="round" fill="currentColor" stroke="currentColor" stroke-width="0" r="0.5324"/>
</g>
<g color="rgb(100.0000%, 100.0000%, 100.0000%)">
<g transform="translate(14.7740, 27.1538)">
<text font-family="sans-serif" font-weight="bold" font-size="0.8732" text-anchor="start" fill="currentColor">
<tspan>G</tspan>
</text>
</g>
</g>
</a>
<g transform="translate(15.5818, 25.8421)">
<rect x="-0.0422" y="-2.5000" width="0.0843" height="3.3056" ry="0.0186" fill="currentColor"/>
</g>
<a style="color:inherit;" xlink:href="textedit:///home/kubuntu/Music/estudos-lilypond/conservatorio/lavanda-azul.ly:33:17:18">
<g transform="translate(19.7932, 26.8421)">
<circle stroke-linejoin="round" stroke-linecap="round" fill="currentColor" stroke="currentColor" stroke-width="0" r="0.5324"/>
</g>
<g color="rgb(100.0000%, 100.0000%, 100.0000%)">
<g transform="translate(19.4756, 27.1538)">
<text font-family="sans-serif" font-weight="bold" font-size="0.8732" text-anchor="start" fill="currentColor">
<tspan>G</tspan>
</text>
</g>
</g>
</a>
<g transform="translate(1.5490, 29.6444)">
<path transform="scale(0.0040, -0.0040)" d="M-81 -324c0 228 -120 321 -120 324c0 18 120 84 120 324c0 231 -96 429 -96 687c0 171 42 333 165 450c15 15 39 -9 24 -24c-90 -87 -120 -198 -120 -318c0 -228 90 -423 90 -675c0 -168 -42 -327 -159 -444c117 -117 159 -276 159 -444c0 -252 -90 -447 -90 -675
c0 -120 30 -231 120 -318c15 -15 -9 -39 -24 -24c-123 117 -165 279 -165 450c0 258 96 456 96 687z" fill="currentColor"/>
</g>
<g transform="translate(1.8490, 29.6444)">
<rect x="0.0000" y="-5.8348" width="0.1038" height="11.6696" ry="0.0324" fill="currentColor"/>
</g>
<g transform="translate(2.6527, 26.8421)">
<path transform="scale(0.0040, -0.0040)" d="M264 -594c47 0 165 26 165 246c0 32 -2 64 -5 96c-5 -1 -44 -8 -89 -8c-193 0 -333 178 -333 372c0 178 133 306 251 440c-27 93 -49 170 -49 345c0 116 55 226 150 295c5 4 11 4 16 0c67 -81 132 -246 132 -359c0 -144 -87 -256 -183 -365c20 -69 39 -138 55 -208
c2 0 7 1 15 1c154 0 254 -127 254 -259c0 -112 -73 -212 -180 -245c3 -36 5 -72 5 -108c0 -19 0 -37 -1 -56c-7 -120 -89 -226 -206 -226c-108 0 -195 87 -195 195c0 58 53 104 112 104c54 0 95 -48 95 -104c0 -52 -43 -95 -95 -95c-12 0 -24 4 -35 9c26 -41 70 -70 121 -70
zM459 -205c71 24 117 92 117 166c0 92 -69 184 -179 193c1 -5 45 -212 62 -359zM71 31c0 -146 142 -251 267 -251c1 0 46 0 82 6c-7 63 -28 201 -64 367c-79 -9 -125 -62 -125 -121c0 -44 26 -92 82 -124c4 -4 7 -9 7 -14c0 -11 -9 -21 -20 -21c-14 0 -125 62 -125 186
c0 88 57 173 158 196c-14 60 -30 119 -46 178c-108 -121 -216 -242 -216 -402zM411 1050c-99 -50 -161 -151 -161 -262c0 -59 11 -123 33 -200c82 97 149 198 149 325c0 35 0 69 -21 137z" fill="currentColor"/>
</g>
<g transform="translate(2.6527, 32.4468)">
<path transform="scale(0.0040, -0.0040)" d="M556 -125c0 29 23 52 52 52s52 -23 52 -52s-23 -52 -52 -52s-52 23 -52 52zM556 125c0 29 23 52 52 52s52 -23 52 -52s-23 -52 -52 -52s-52 23 -52 52zM233 261c171 0 292 -86 292 -248c0 -263 -264 -415 -517 -521c-2 -2 -5 -3 -8 -3c-6 0 -11 5 -11 11c0 3 1 6 3 8
c203 118 415 265 415 494c0 121 -64 237 -174 237c-79 0 -138 -57 -164 -133c14 8 28 13 43 13c55 0 100 -45 100 -100c0 -58 -44 -107 -100 -107c-60 0 -112 48 -112 107c0 132 103 242 233 242z" fill="currentColor"/>
</g>
<g transform="translate(0.8840, 22.7922)">
<text font-family="serif" font-size="1.7463" text-anchor="start" fill="currentColor">
<tspan>5</tspan>
</text>
</g>
<a style="color:inherit;" xlink:href="textedit:///home/kubuntu/Music/estudos-lilypond/conservatorio/lavanda-azul.ly:33:2:3">
<g transform="translate(8.1852, 28.8421)">
<circle stroke-linejoin="round" stroke-linecap="round" fill="currentColor" stroke="currentColor" stroke-width="0" r="0.5324"/>
</g>
<g color="rgb(100.0000%, 100.0000%, 100.0000%)">
<g transform="translate(7.9073, 29.1538)">
<text font-family="sans-serif" font-weight="bold" font-size="0.8732" text-anchor="start" fill="currentColor">
<tspan>C</tspan>
</text>
</g>
</g>
</a>
<g transform="translate(23.6117, 25.8421)">
<rect x="-0.0422" y="-1.2011" width="0.0843" height="2.5067" ry="0.0186" fill="currentColor"/>
</g>
<a style="color:inherit;" xlink:href="textedit:///home/kubuntu/Music/estudos-lilypond/conservatorio/lavanda-azul.ly:33:21:22">
<g transform="translate(23.1214, 27.3421)">
<circle stroke-linejoin="round" stroke-linecap="round" fill="currentColor" stroke="currentColor" stroke-width="0" r="0.5324"/>
</g>
<g color="rgb(100.0000%, 100.0000%, 100.0000%)">
<g transform="translate(22.8832, 27.6538)">
<text font-family="sans-serif" font-weight="bold" font-size="0.8732" text-anchor="start" fill="currentColor">
<tspan>F</tspan>
</text>
</g>
</g>
</a>
<a style="color:inherit;" xlink:href="textedit:///home/kubuntu/Music/estudos-lilypond/conservatorio/lavanda-azul.ly:33:25:26">
<g transform="translate(25.2526, 27.8421)">
<circle stroke-linejoin="round" stroke-linecap="round" fill="currentColor" stroke="currentColor" stroke-width="0" r="0.5324"/>
</g>
<g color="rgb(100.0000%, 100.0000%, 100.0000%)">
<g transform="translate(25.0065, 28.1538)">
<text font-family="sans-serif" font-weight="bold" font-size="0.8732" text-anchor="start" fill="currentColor">
<tspan>E</tspan>
</text>
</g>
</g>
</a>
<g transform="translate(25.7429, 25.8421)">
<rect x="-0.0422" y="-0.8721" width="0.0843" height="2.6777" ry="0.0186" fill="currentColor"/>
</g>
<g transform="translate(27.8741, 25.8421)">
<rect x="-0.0422" y="-0.5431" width="0.0843" height="2.8487" ry="0.0186" fill="currentColor"/>
</g>
<g transform="translate(20.2835, 25.8421)">
<rect x="-0.0422" y="-2.5000" width="0.0843" height="3.3056" ry="0.0186" fill="currentColor"/>
</g>
<a style="color:inherit;" xlink:href="textedit:///home/kubuntu/Music/estudos-lilypond/conservatorio/lavanda-azul.ly:47:13:14">
<g transform="translate(19.2608, 33.4468)">
<path transform="scale(0.0040, -0.0040)" d="M367 0h-359c-4 0 -8 4 -8 8v140c0 4 4 8 8 8h359c4 0 8 -4 8 -8v-140c0 -4 -4 -8 -8 -8z" fill="currentColor"/>
</g>
</a>
<a style="color:inherit;" xlink:href="textedit:///home/kubuntu/Music/estudos-lilypond/conservatorio/lavanda-azul.ly:33:28:29">
<g transform="translate(27.3838, 28.3421)">
<circle stroke-linejoin="round" stroke-linecap="round" fill="currentColor" stroke="currentColor" stroke-width="0" r="0.5324"/>
</g>
<g color="rgb(100.0000%, 100.0000%, 100.0000%)">
<g transform="translate(27.0582, 28.6538)">
<text font-family="sans-serif" font-weight="bold" font-size="0.8732" text-anchor="start" fill="currentColor">
<tspan>D</tspan>
</text>
</g>
</g>
</a>
<g transform="translate(21.2176, 32.9468)">
<path transform="scale(0.0040, -0.0040)" d="M0 0c0 32 25 57 57 57s57 -25 57 -57s-25 -57 -57 -57s-57 25 -57 57z" fill="currentColor"/>
</g>
</svg>
