<svg xmlns="http://www.w3.org/2000/svg" xmlns:xlink="http://www.w3.org/1999/xlink" version="1.2" width="210.00mm" height="148.00mm" viewBox="0.0000 -0.0000 68.2866 48.1258">
<style type="text/css">
<![CDATA[
tspan { white-space: pre; }
]]>
</style>
<g transform="translate(21.1201, 3.1595)">
<text font-family="serif" font-weight="bold" font-size="1.9598" text-anchor="start" fill="currentColor">
<tspan>Asa Branca - Luiz Gonzaga</tspan>
</text>
</g>
<g transform="translate(3.2517, 13.1406)">
<rect x="14.4678" y="-0.0859" width="1.6078" height="0.1718" ry="0.0859" fill="currentColor"/>
</g>
<g transform="translate(3.2517, 12.1406)">
<line stroke-linejoin="round" stroke-linecap="round" stroke-width="0.0718" stroke="currentColor" x1="0.0359" y1="0" x2="61.7472" y2="0"/>
</g>
<g transform="translate(3.2517, 11.1406)">
<line stroke-linejoin="round" stroke-linecap="round" stroke-width="0.0718" stroke="currentColor" x1="0.0359" y1="0" x2="61.7472" y2="0"/>
</g>
<g transform="translate(3.2517, 10.1406)">
<line stroke-linejoin="round" stroke-linecap="round" stroke-width="0.0718" stroke="currentColor" x1="0.0359" y1="0" x2="61.7472" y2="0"/>
</g>
<g transform="translate(3.2517, 9.1406)">
<line stroke-linejoin="round" stroke-linecap="round" stroke-width="0.0718" stroke="currentColor" x1="0.0359" y1="0" x2="61.7472" y2="0"/>
</g>
<g transform="translate(3.2517, 8.1406)">
<line stroke-linejoin="round" stroke-linecap="round" stroke-width="0.0718" stroke="currentColor" x1="0.0359" y1="0" x2="61.7472" y2="0"/>
</g>
<g transform="translate(51.8616, 10.1406)">
<rect x="0.0000" y="-2.0000" width="0.1365" height="4.0000" ry="0.0000" fill="currentColor"/>
</g>
<g transform="translate(39.0748, 10.1406)">
<rect x="0.0000" y="-2.0000" width="0.1365" height="4.0000" ry="0.0000" fill="currentColor"/>
</g>
<g transform="translate(25.8237, 10.1406)">
<rect x="0.0000" y="-2.0000" width="0.1365" height="4.0000" ry="0.0000" fill="currentColor"/>
</g>
<g transform="translate(64.8984, 10.1406)">
<rect x="0.0000" y="-2.0000" width="0.1365" height="4.0000" ry="0.0000" fill="currentColor"/>
</g>
<a style="color:inherit;" xlink:href="textedit:///home/kubuntu/Music/estudos-lilypond/asa-branca/asa-branca.ly:19:29:30">
<g transform="translate(46.4198, 12.1406)">
<circle stroke-linejoin="round" stroke-linecap="round" fill="currentColor" stroke="currentColor" stroke-width="0" r="0.5359"/>
</g>
<g color="rgb(100.0000%, 100.0000%, 100.0000%)">
<g transform="translate(46.4198, 12.1406)">
<circle stroke-linejoin="round" stroke-linecap="round" fill="currentColor" stroke="currentColor" stroke-width="0" r="0.4425"/>
</g>
</g>
<g transform="translate(46.1760, 12.4523)">
<text font-family="sans-serif" font-weight="bold" font-size="0.8734" text-anchor="start" fill="currentColor">
<tspan>E</tspan>
</text>
</g>
</a>
<g transform="translate(46.9091, 10.1406)">
<rect x="-0.0467" y="-1.5000" width="0.0934" height="3.2331" ry="0.0229" fill="currentColor"/>
</g>
<a style="color:inherit;" xlink:href="textedit:///home/kubuntu/Music/estudos-lilypond/asa-branca/asa-branca.ly:36:18:19">
<g transform="translate(53.1740, 7.5785)">
<text font-family="sans-serif" font-size="2.6164" text-anchor="start" fill="currentColor">
<tspan>F</tspan>
</text>
</g>
</a>
<a style="color:inherit;" xlink:href="textedit:///home/kubuntu/Music/estudos-lilypond/asa-branca/asa-branca.ly:19:39:40">
<g transform="translate(53.7099, 11.6406)">
<circle stroke-linejoin="round" stroke-linecap="round" fill="currentColor" stroke="currentColor" stroke-width="0" r="0.5359"/>
</g>
<g color="rgb(100.0000%, 100.0000%, 100.0000%)">
<g transform="translate(53.7099, 11.6406)">
<circle stroke-linejoin="round" stroke-linecap="round" fill="currentColor" stroke="currentColor" stroke-width="0" r="0.4425"/>
</g>
</g>
<g transform="translate(53.4660, 11.9523)">
<text font-family="sans-serif" font-weight="bold" font-size="0.8734" text-anchor="start" fill="currentColor">
<tspan>F</tspan>
</text>
</g>
</a>
<g transform="translate(41.4123, 10.1406)">
<rect x="-0.0467" y="-2.5000" width="0.0934" height="3.2331" ry="0.0229" fill="currentColor"/>
</g>
<a style="color:inherit;" xlink:href="textedit:///home/kubuntu/Music/estudos-lilypond/asa-branca/asa-branca.ly:19:26:27">
<g transform="translate(40.9231, 11.1406)">
<circle stroke-linejoin="round" stroke-linecap="round" fill="currentColor" stroke="currentColor" stroke-width="0" r="0.5359"/>
</g>
<g color="rgb(100.0000%, 100.0000%, 100.0000%)">
<g transform="translate(40.9231, 11.1406)">
<circle stroke-linejoin="round" stroke-linecap="round" fill="currentColor" stroke="currentColor" stroke-width="0" r="0.4425"/>
</g>
</g>
<g transform="translate(40.6110, 11.4523)">
<text font-family="sans-serif" font-weight="bold" font-size="0.8734" text-anchor="start" fill="currentColor">
<tspan>G</tspan>
</text>
</g>
</a>
<g transform="translate(59.9459, 10.1406)">
<rect x="-0.0467" y="-2.0000" width="0.0934" height="3.2331" ry="0.0229" fill="currentColor"/>
</g>
<a style="color:inherit;" xlink:href="textedit:///home/kubuntu/Music/estudos-lilypond/asa-branca/asa-branca.ly:19:42:43">
<g transform="translate(59.4566, 11.6406)">
<circle stroke-linejoin="round" stroke-linecap="round" fill="currentColor" stroke="currentColor" stroke-width="0" r="0.5359"/>
</g>
<g color="rgb(100.0000%, 100.0000%, 100.0000%)">
<g transform="translate(59.4566, 11.6406)">
<circle stroke-linejoin="round" stroke-linecap="round" fill="currentColor" stroke="currentColor" stroke-width="0" r="0.4425"/>
</g>
</g>
<g transform="translate(59.2128, 11.9523)">
<text font-family="sans-serif" font-weight="bold" font-size="0.8734" text-anchor="start" fill="currentColor">
<tspan>F</tspan>
</text>
</g>
</a>
<g transform="translate(54.1991, 10.1406)">
<rect x="-0.0467" y="-2.0000" width="0.0934" height="3.2331" ry="0.0229" fill="currentColor"/>
</g>
<g transform="translate(22.8236, 10.1406)">
<rect x="-0.0467" y="-1.0000" width="0.0934" height="3.3044" ry="0.0229" fill="currentColor"/>
</g>
<g transform="translate(19.0126, 10.1406)">
<rect x="-0.0467" y="-0.5000" width="0.0934" height="3.3044" ry="0.0229" fill="currentColor"/>
</g>
<a style="color:inherit;" xlink:href="textedit:///home/kubuntu/Music/estudos-lilypond/asa-branca/asa-branca.ly:19:5:6">
<g transform="translate(18.5234, 13.1406)">
<circle stroke-linejoin="round" stroke-linecap="round" fill="currentColor" stroke="currentColor" stroke-width="0" r="0.5359"/>
</g>
<g color="rgb(100.0000%, 100.0000%, 100.0000%)">
<g transform="translate(18.2405, 13.4523)">
<text font-family="sans-serif" font-weight="bold" font-size="0.8734" text-anchor="start" fill="currentColor">
<tspan>C</tspan>
</text>
</g>
</g>
</a>
<a style="color:inherit;" xlink:href="textedit:///home/kubuntu/Music/estudos-lilypond/asa-branca/asa-branca.ly:19:10:11">
<g transform="translate(22.3344, 12.6406)">
<circle stroke-linejoin="round" stroke-linecap="round" fill="currentColor" stroke="currentColor" stroke-width="0" r="0.5359"/>
</g>
<g color="rgb(100.0000%, 100.0000%, 100.0000%)">
<g transform="translate(22.0125, 12.9523)">
<text font-family="sans-serif" font-weight="bold" font-size="0.8734" text-anchor="start" fill="currentColor">
<tspan>D</tspan>
</text>
</g>
</g>
</a>
<a style="color:inherit;" xlink:href="textedit:///home/kubuntu/Music/estudos-lilypond/asa-branca/asa-branca.ly:16:4:5">
<g transform="translate(8.2517, 6.8026)">
<rect x="1.0475" y="-2.6727" width="0.1158" height="2.4974" ry="0.0193" fill="currentColor"/>
</g>
<g transform="translate(8.2517, 6.8026)">
<path transform="scale(0.0036, -0.0036)" d="M222 135c64 0 104 -35 104 -86c0 -89 -114 -184 -221 -184c-64 0 -105 35 -105 86c0 89 115 184 222 184z" fill="currentColor"/>
</g>
<g transform="translate(9.4151, 7.2827)">
<text font-family="serif" font-size="2.2001" text-anchor="start" fill="currentColor">
<tspan> = 140</tspan>
</text>
</g>
</a>
<a style="color:inherit;" xlink:href="textedit:///home/kubuntu/Music/estudos-lilypond/asa-branca/../header.ly:23:2:3">
<g transform="translate(8.2517, 10.1406)">
<path transform="scale(0.0040, -0.0040)" d="M-2 146c0 13 148 151 148 339c0 10 7 18 15 15c22 -7 44 -13 67 -13s45 6 67 13c12 4 21 -8 15 -15l-283 -333h173v147c0 32 34 24 65 67c11 15 18 32 25 49c4 9 20 7 20 -7v-256h68c9 0 13 -7 13 -14s-4 -13 -13 -13h-68v-16c0 -45 26 -88 68 -88c7 0 10 -5 10 -10
s-3 -11 -10 -11c-41 0 -82 13 -123 13s-82 -13 -123 -13c-7 0 -10 6 -10 11s3 10 10 10c42 0 68 43 68 88v16h-173c-21 0 -29 13 -29 21z" fill="currentColor"/>
</g>
<g transform="translate(8.2517, 12.1565)">
<path transform="scale(0.0040, -0.0040)" d="M-2 146c0 13 148 151 148 339c0 10 7 18 15 15c22 -7 44 -13 67 -13s45 6 67 13c12 4 21 -8 15 -15l-283 -333h173v147c0 32 34 24 65 67c11 15 18 32 25 49c4 9 20 7 20 -7v-256h68c9 0 13 -7 13 -14s-4 -13 -13 -13h-68v-16c0 -45 26 -88 68 -88c7 0 10 -5 10 -10
s-3 -11 -10 -11c-41 0 -82 13 -123 13s-82 -13 -123 -13c-7 0 -10 6 -10 11s3 10 10 10c42 0 68 43 68 88v16h-173c-21 0 -29 13 -29 21z" fill="currentColor"/>
</g>
</a>
<a style="color:inherit;" xlink:href="textedit:///home/kubuntu/Music/estudos-lilypond/asa-branca/../header.ly:21:2:3">
</a>
<g transform="translate(4.0517, 11.1406)">
<path transform="scale(0.0040, -0.0040)" d="M264 -594c47 0 165 26 165 246c0 32 -2 64 -5 96c-5 -1 -44 -8 -89 -8c-193 0 -333 178 -333 372c0 178 133 306 251 440c-27 93 -49 170 -49 345c0 116 55 226 150 295c5 4 11 4 16 0c67 -81 132 -246 132 -359c0 -144 -87 -256 -183 -365c20 -69 39 -138 55 -208
c2 0 7 1 15 1c154 0 254 -127 254 -259c0 -112 -73 -212 -180 -245c3 -36 5 -72 5 -108c0 -19 0 -37 -1 -56c-7 -120 -89 -226 -206 -226c-108 0 -195 87 -195 195c0 58 53 104 112 104c54 0 95 -48 95 -104c0 -52 -43 -95 -95 -95c-12 0 -24 4 -35 9c26 -41 70 -70 121 -70
zM459 -205c71 24 117 92 117 166c0 92 -69 184 -179 193c1 -5 45 -212 62 -359zM71 31c0 -146 142 -251 267 -251c1 0 46 0 82 6c-7 63 -28 201 -64 367c-79 -9 -125 -62 -125 -121c0 -44 26 -92 82 -124c4 -4 7 -9 7 -14c0 -11 -9 -21 -20 -21c-14 0 -125 62 -125 186
c0 88 57 173 158 196c-14 60 -30 119 -46 178c-108 -121 -216 -242 -216 -402zM411 1050c-99 -50 -161 -151 -161 -262c0 -59 11 -123 33 -200c82 97 149 198 149 325c0 35 0 69 -21 137z" fill="currentColor"/>
</g>
<a style="color:inherit;" xlink:href="textedit:///home/kubuntu/Music/estudos-lilypond/asa-branca/asa-branca.ly:19:2:3">
<g transform="translate(11.8126, 10.1406)">
<path transform="scale(0.0040, -0.0040)" d="M367 0h-359c-4 0 -8 4 -8 8v140c0 4 4 8 8 8h359c4 0 8 -4 8 -8v-140c0 -4 -4 -8 -8 -8z" fill="currentColor"/>
</g>
</a>
<g transform="translate(34.1580, 10.1406)">
<rect x="-0.0467" y="-2.5000" width="0.0934" height="3.2331" ry="0.0229" fill="currentColor"/>
</g>
<a style="color:inherit;" xlink:href="textedit:///home/kubuntu/Music/estudos-lilypond/asa-branca/asa-branca.ly:19:18:19">
<g transform="translate(33.6688, 11.1406)">
<circle stroke-linejoin="round" stroke-linecap="round" fill="currentColor" stroke="currentColor" stroke-width="0" r="0.5359"/>
</g>
<g color="rgb(100.0000%, 100.0000%, 100.0000%)">
<g transform="translate(33.6688, 11.1406)">
<circle stroke-linejoin="round" stroke-linecap="round" fill="currentColor" stroke="currentColor" stroke-width="0" r="0.4425"/>
</g>
</g>
<g transform="translate(33.3566, 11.4523)">
<text font-family="sans-serif" font-weight="bold" font-size="0.8734" text-anchor="start" fill="currentColor">
<tspan>G</tspan>
</text>
</g>
</a>
<g transform="translate(28.1613, 10.1406)">
<rect x="-0.0467" y="-1.5000" width="0.0934" height="3.2331" ry="0.0229" fill="currentColor"/>
</g>
<a style="color:inherit;" xlink:href="textedit:///home/kubuntu/Music/estudos-lilypond/asa-branca/asa-branca.ly:19:15:16">
<g transform="translate(27.6720, 12.1406)">
<circle stroke-linejoin="round" stroke-linecap="round" fill="currentColor" stroke="currentColor" stroke-width="0" r="0.5359"/>
</g>
<g color="rgb(100.0000%, 100.0000%, 100.0000%)">
<g transform="translate(27.6720, 12.1406)">
<circle stroke-linejoin="round" stroke-linecap="round" fill="currentColor" stroke="currentColor" stroke-width="0" r="0.4425"/>
</g>
</g>
<g transform="translate(27.4282, 12.4523)">
<text font-family="sans-serif" font-weight="bold" font-size="0.8734" text-anchor="start" fill="currentColor">
<tspan>E</tspan>
</text>
</g>
</a>
<a style="color:inherit;" xlink:href="textedit:///home/kubuntu/Music/estudos-lilypond/asa-branca/asa-branca.ly:36:7:8">
<g transform="translate(27.1361, 7.5785)">
<text font-family="sans-serif" font-size="2.6164" text-anchor="start" fill="currentColor">
<tspan>C</tspan>
</text>
</g>
</a>
<g transform="translate(3.2517, 23.9652)">
<rect x="12.3966" y="-0.0859" width="1.6078" height="0.1718" ry="0.0859" fill="currentColor"/>
</g>
<g transform="translate(39.2981, 20.9652)">
<rect x="0.0000" y="-2.0000" width="0.1365" height="4.0000" ry="0.0000" fill="currentColor"/>
</g>
<g transform="translate(24.5607, 20.9652)">
<rect x="0.0000" y="-2.0000" width="0.1365" height="4.0000" ry="0.0000" fill="currentColor"/>
</g>
<g transform="translate(53.8212, 20.9652)">
<rect x="0.0000" y="-2.0000" width="0.1365" height="4.0000" ry="0.0000" fill="currentColor"/>
</g>
<g transform="translate(64.8984, 20.9652)">
<rect x="0.0000" y="-2.0000" width="0.1365" height="4.0000" ry="0.0000" fill="currentColor"/>
</g>
<g transform="translate(3.2517, 22.9652)">
<line stroke-linejoin="round" stroke-linecap="round" stroke-width="0.0718" stroke="currentColor" x1="0.0359" y1="0" x2="61.7472" y2="0"/>
</g>
<g transform="translate(3.2517, 21.9652)">
<line stroke-linejoin="round" stroke-linecap="round" stroke-width="0.0718" stroke="currentColor" x1="0.0359" y1="0" x2="61.7472" y2="0"/>
</g>
<g transform="translate(3.2517, 20.9652)">
<line stroke-linejoin="round" stroke-linecap="round" stroke-width="0.0718" stroke="currentColor" x1="0.0359" y1="0" x2="61.7472" y2="0"/>
</g>
<g transform="translate(3.2517, 19.9652)">
<line stroke-linejoin="round" stroke-linecap="round" stroke-width="0.0718" stroke="currentColor" x1="0.0359" y1="0" x2="61.7472" y2="0"/>
</g>
<g transform="translate(3.2517, 18.9652)">
<line stroke-linejoin="round" stroke-linecap="round" stroke-width="0.0718" stroke="currentColor" x1="0.0359" y1="0" x2="61.7472" y2="0"/>
</g>
<g transform="translate(48.1791, 20.9652)">
<rect x="-0.0467" y="-2.0000" width="0.0934" height="3.2331" ry="0.0229" fill="currentColor"/>
</g>
<a style="color:inherit;" xlink:href="textedit:///home/kubuntu/Music/estudos-lilypond/asa-branca/asa-branca.ly:22:29:30">
<g transform="translate(47.6899, 22.4652)">
<circle stroke-linejoin="round" stroke-linecap="round" fill="currentColor" stroke="currentColor" stroke-width="0" r="0.5359"/>
</g>
<g color="rgb(100.0000%, 100.0000%, 100.0000%)">
<g transform="translate(47.6899, 22.4652)">
<circle stroke-linejoin="round" stroke-linecap="round" fill="currentColor" stroke="currentColor" stroke-width="0" r="0.4425"/>
</g>
</g>
<g transform="translate(47.4460, 22.7769)">
<text font-family="sans-serif" font-weight="bold" font-size="0.8734" text-anchor="start" fill="currentColor">
<tspan>F</tspan>
</text>
</g>
</a>
<g transform="translate(41.7427, 20.9652)">
<rect x="-0.0467" y="-2.5000" width="0.0934" height="3.2331" ry="0.0229" fill="currentColor"/>
</g>
<a style="color:inherit;" xlink:href="textedit:///home/kubuntu/Music/estudos-lilypond/asa-branca/asa-branca.ly:22:26:27">
<g transform="translate(41.2535, 21.9652)">
<circle stroke-linejoin="round" stroke-linecap="round" fill="currentColor" stroke="currentColor" stroke-width="0" r="0.5359"/>
</g>
<g color="rgb(100.0000%, 100.0000%, 100.0000%)">
<g transform="translate(41.2535, 21.9652)">
<circle stroke-linejoin="round" stroke-linecap="round" fill="currentColor" stroke="currentColor" stroke-width="0" r="0.4425"/>
</g>
</g>
<g transform="translate(40.9413, 22.2769)">
<text font-family="sans-serif" font-weight="bold" font-size="0.8734" text-anchor="start" fill="currentColor">
<tspan>G</tspan>
</text>
</g>
</a>
<g transform="translate(33.6917, 20.9652)">
<rect x="-0.0467" y="-2.5000" width="0.0934" height="3.2331" ry="0.0229" fill="currentColor"/>
</g>
<a style="color:inherit;" xlink:href="textedit:///home/kubuntu/Music/estudos-lilypond/asa-branca/asa-branca.ly:22:18:19">
<g transform="translate(33.2024, 21.9652)">
<circle stroke-linejoin="round" stroke-linecap="round" fill="currentColor" stroke="currentColor" stroke-width="0" r="0.5359"/>
</g>
<g color="rgb(100.0000%, 100.0000%, 100.0000%)">
<g transform="translate(33.2024, 21.9652)">
<circle stroke-linejoin="round" stroke-linecap="round" fill="currentColor" stroke="currentColor" stroke-width="0" r="0.4425"/>
</g>
</g>
<g transform="translate(32.8903, 22.2769)">
<text font-family="sans-serif" font-weight="bold" font-size="0.8734" text-anchor="start" fill="currentColor">
<tspan>G</tspan>
</text>
</g>
</a>
<a style="color:inherit;" xlink:href="textedit:///home/kubuntu/Music/estudos-lilypond/asa-branca/asa-branca.ly:22:39:40">
<g transform="translate(56.7766, 22.9652)">
<circle stroke-linejoin="round" stroke-linecap="round" fill="currentColor" stroke="currentColor" stroke-width="0" r="0.5359"/>
</g>
<g color="rgb(100.0000%, 100.0000%, 100.0000%)">
<g transform="translate(56.7766, 22.9652)">
<circle stroke-linejoin="round" stroke-linecap="round" fill="currentColor" stroke="currentColor" stroke-width="0" r="0.4425"/>
</g>
</g>
<g transform="translate(56.5328, 23.2769)">
<text font-family="sans-serif" font-weight="bold" font-size="0.8734" text-anchor="start" fill="currentColor">
<tspan>E</tspan>
</text>
</g>
</a>
<g transform="translate(16.9414, 20.9652)">
<rect x="-0.0467" y="-0.5000" width="0.0934" height="3.3044" ry="0.0229" fill="currentColor"/>
</g>
<a style="color:inherit;" xlink:href="textedit:///home/kubuntu/Music/estudos-lilypond/asa-branca/asa-branca.ly:22:5:6">
<g transform="translate(16.4522, 23.9652)">
<circle stroke-linejoin="round" stroke-linecap="round" fill="currentColor" stroke="currentColor" stroke-width="0" r="0.5359"/>
</g>
<g color="rgb(100.0000%, 100.0000%, 100.0000%)">
<g transform="translate(16.1693, 24.2769)">
<text font-family="sans-serif" font-weight="bold" font-size="0.8734" text-anchor="start" fill="currentColor">
<tspan>C</tspan>
</text>
</g>
</g>
</a>
<a style="color:inherit;" xlink:href="textedit:///home/kubuntu/Music/estudos-lilypond/asa-branca/asa-branca.ly:22:2:3">
<g transform="translate(9.0517, 20.9652)">
<path transform="scale(0.0040, -0.0040)" d="M367 0h-359c-4 0 -8 4 -8 8v140c0 4 4 8 8 8h359c4 0 8 -4 8 -8v-140c0 -4 -4 -8 -8 -8z" fill="currentColor"/>
</g>
</a>
<g transform="translate(2.2762, 17.9118)">
<text font-family="serif" font-size="1.7462" text-anchor="start" fill="currentColor">
<tspan>5</tspan>
</text>
</g>
<g transform="translate(4.0517, 21.9652)">
<path transform="scale(0.0040, -0.0040)" d="M264 -594c47 0 165 26 165 246c0 32 -2 64 -5 96c-5 -1 -44 -8 -89 -8c-193 0 -333 178 -333 372c0 178 133 306 251 440c-27 93 -49 170 -49 345c0 116 55 226 150 295c5 4 11 4 16 0c67 -81 132 -246 132 -359c0 -144 -87 -256 -183 -365c20 -69 39 -138 55 -208
c2 0 7 1 15 1c154 0 254 -127 254 -259c0 -112 -73 -212 -180 -245c3 -36 5 -72 5 -108c0 -19 0 -37 -1 -56c-7 -120 -89 -226 -206 -226c-108 0 -195 87 -195 195c0 58 53 104 112 104c54 0 95 -48 95 -104c0 -52 -43 -95 -95 -95c-12 0 -24 4 -35 9c26 -41 70 -70 121 -70
zM459 -205c71 24 117 92 117 166c0 92 -69 184 -179 193c1 -5 45 -212 62 -359zM71 31c0 -146 142 -251 267 -251c1 0 46 0 82 6c-7 63 -28 201 -64 367c-79 -9 -125 -62 -125 -121c0 -44 26 -92 82 -124c4 -4 7 -9 7 -14c0 -11 -9 -21 -20 -21c-14 0 -125 62 -125 186
c0 88 57 173 158 196c-14 60 -30 119 -46 178c-108 -121 -216 -242 -216 -402zM411 1050c-99 -50 -161 -151 -161 -262c0 -59 11 -123 33 -200c82 97 149 198 149 325c0 35 0 69 -21 137z" fill="currentColor"/>
</g>
<a style="color:inherit;" xlink:href="textedit:///home/kubuntu/Music/estudos-lilypond/asa-branca/asa-branca.ly:37:7:8">
<g transform="translate(25.9802, 18.4031)">
<text font-family="sans-serif" font-size="2.6164" text-anchor="start" fill="currentColor">
<tspan>C</tspan>
</text>
</g>
</a>
<g transform="translate(27.0053, 20.9652)">
<rect x="-0.0467" y="-1.5000" width="0.0934" height="3.2331" ry="0.0229" fill="currentColor"/>
</g>
<a style="color:inherit;" xlink:href="textedit:///home/kubuntu/Music/estudos-lilypond/asa-branca/asa-branca.ly:22:15:16">
<g transform="translate(26.5161, 22.9652)">
<circle stroke-linejoin="round" stroke-linecap="round" fill="currentColor" stroke="currentColor" stroke-width="0" r="0.5359"/>
</g>
<g color="rgb(100.0000%, 100.0000%, 100.0000%)">
<g transform="translate(26.5161, 22.9652)">
<circle stroke-linejoin="round" stroke-linecap="round" fill="currentColor" stroke="currentColor" stroke-width="0" r="0.4425"/>
</g>
</g>
<g transform="translate(26.2722, 23.2769)">
<text font-family="sans-serif" font-weight="bold" font-size="0.8734" text-anchor="start" fill="currentColor">
<tspan>E</tspan>
</text>
</g>
</a>
<g transform="translate(21.1565, 20.9652)">
<rect x="-0.0467" y="-1.0000" width="0.0934" height="3.3044" ry="0.0229" fill="currentColor"/>
</g>
<a style="color:inherit;" xlink:href="textedit:///home/kubuntu/Music/estudos-lilypond/asa-branca/asa-branca.ly:22:10:11">
<g transform="translate(20.6673, 23.4652)">
<circle stroke-linejoin="round" stroke-linecap="round" fill="currentColor" stroke="currentColor" stroke-width="0" r="0.5359"/>
</g>
<g color="rgb(100.0000%, 100.0000%, 100.0000%)">
<g transform="translate(20.3453, 23.7769)">
<text font-family="sans-serif" font-weight="bold" font-size="0.8734" text-anchor="start" fill="currentColor">
<tspan>D</tspan>
</text>
</g>
</g>
</a>
<g transform="translate(3.2517, 34.7898)">
<rect x="49.9938" y="-0.0859" width="1.6078" height="0.1718" ry="0.0859" fill="currentColor"/>
</g>
<g transform="translate(3.2517, 34.7898)">
<rect x="12.6867" y="-0.0859" width="1.6078" height="0.1718" ry="0.0859" fill="currentColor"/>
</g>
<g transform="translate(3.2517, 34.7898)">
<rect x="9.0485" y="-0.0859" width="1.6078" height="0.1718" ry="0.0859" fill="currentColor"/>
</g>
<g transform="translate(3.2517, 33.7898)">
<line stroke-linejoin="round" stroke-linecap="round" stroke-width="0.0718" stroke="currentColor" x1="0.0359" y1="0" x2="61.7472" y2="0"/>
</g>
<g transform="translate(3.2517, 32.7898)">
<line stroke-linejoin="round" stroke-linecap="round" stroke-width="0.0718" stroke="currentColor" x1="0.0359" y1="0" x2="61.7472" y2="0"/>
</g>
<g transform="translate(3.2517, 31.7898)">
<line stroke-linejoin="round" stroke-linecap="round" stroke-width="0.0718" stroke="currentColor" x1="0.0359" y1="0" x2="61.7472" y2="0"/>
</g>
<g transform="translate(3.2517, 30.7898)">
<line stroke-linejoin="round" stroke-linecap="round" stroke-width="0.0718" stroke="currentColor" x1="0.0359" y1="0" x2="61.7472" y2="0"/>
</g>
<g transform="translate(3.2517, 29.7898)">
<line stroke-linejoin="round" stroke-linecap="round" stroke-width="0.0718" stroke="currentColor" x1="0.0359" y1="0" x2="61.7472" y2="0"/>
</g>
<g transform="translate(36.3130, 31.7898)">
<rect x="0.0000" y="-2.0000" width="0.1365" height="4.0000" ry="0.0000" fill="currentColor"/>
</g>
<g transform="translate(52.2469, 31.7898)">
<rect x="0.0000" y="-2.0000" width="0.1365" height="4.0000" ry="0.0000" fill="currentColor"/>
</g>
<g transform="translate(23.6973, 31.7898)">
<rect x="0.0000" y="-2.0000" width="0.1365" height="4.0000" ry="0.0000" fill="currentColor"/>
</g>
<g transform="translate(64.8984, 31.7898)">
<rect x="0.0000" y="-2.0000" width="0.1365" height="4.0000" ry="0.0000" fill="currentColor"/>
</g>
<g transform="translate(42.1212, 31.7898)">
<rect x="-0.0467" y="-2.5000" width="0.0934" height="3.3044" ry="0.0229" fill="currentColor"/>
</g>
<a style="color:inherit;" xlink:href="textedit:///home/kubuntu/Music/estudos-lilypond/asa-branca/asa-branca.ly:25:32:33">
<g transform="translate(45.2703, 33.2898)">
<circle stroke-linejoin="round" stroke-linecap="round" fill="currentColor" stroke="currentColor" stroke-width="0" r="0.5359"/>
</g>
<g color="rgb(100.0000%, 100.0000%, 100.0000%)">
<g transform="translate(45.0264, 33.6015)">
<text font-family="sans-serif" font-weight="bold" font-size="0.8734" text-anchor="start" fill="currentColor">
<tspan>F</tspan>
</text>
</g>
</g>
</a>
<g transform="translate(45.7595, 31.7898)">
<rect x="-0.0467" y="-2.0000" width="0.0934" height="3.3044" ry="0.0229" fill="currentColor"/>
</g>
<a style="color:inherit;" xlink:href="textedit:///home/kubuntu/Music/estudos-lilypond/asa-branca/asa-branca.ly:25:34:35">
<g transform="translate(48.9085, 33.7898)">
<circle stroke-linejoin="round" stroke-linecap="round" fill="currentColor" stroke="currentColor" stroke-width="0" r="0.5359"/>
</g>
<g color="rgb(100.0000%, 100.0000%, 100.0000%)">
<g transform="translate(48.6647, 34.1015)">
<text font-family="sans-serif" font-weight="bold" font-size="0.8734" text-anchor="start" fill="currentColor">
<tspan>E</tspan>
</text>
</g>
</g>
</a>
<g transform="translate(49.3978, 31.7898)">
<rect x="-0.0467" y="-1.5000" width="0.0934" height="3.3044" ry="0.0229" fill="currentColor"/>
</g>
<a style="color:inherit;" xlink:href="textedit:///home/kubuntu/Music/estudos-lilypond/asa-branca/asa-branca.ly:25:26:27">
<g transform="translate(37.5796, 31.7898)">
<path transform="scale(0.0040, -0.0040)" d="M-4 79c0 59 125 82 125 181c0 24 -8 47 -24 67l-39 46c-2 3 -3 6 -3 9c0 7 7 14 14 14c3 0 7 -1 10 -5l152 -182c7 -8 10 -17 10 -25c0 -59 -125 -82 -125 -181c0 -24 8 -47 24 -67l87 -104c2 -3 3 -5 3 -8c0 -7 -7 -14 -14 -14c-6 0 -48 48 -112 48
c-14 0 -52 -1 -52 -70c0 -35 11 -75 28 -96c6 -7 -4 -16 -10 -9c-46 55 -93 150 -93 204c0 12 0 40 36 40c34 0 85 -15 130 -37l-137 164c-7 8 -10 17 -10 25z" fill="currentColor"/>
</g>
</a>
<a style="color:inherit;" xlink:href="textedit:///home/kubuntu/Music/estudos-lilypond/asa-branca/asa-branca.ly:25:29:30">
<g transform="translate(41.6320, 32.7898)">
<circle stroke-linejoin="round" stroke-linecap="round" fill="currentColor" stroke="currentColor" stroke-width="0" r="0.5359"/>
</g>
<g color="rgb(100.0000%, 100.0000%, 100.0000%)">
<g transform="translate(41.3198, 33.1015)">
<text font-family="sans-serif" font-weight="bold" font-size="0.8734" text-anchor="start" fill="currentColor">
<tspan>G</tspan>
</text>
</g>
</g>
</a>
<g transform="translate(60.2406, 31.7898)">
<rect x="-0.0467" y="-2.0000" width="0.0934" height="3.2331" ry="0.0229" fill="currentColor"/>
</g>
<a style="color:inherit;" xlink:href="textedit:///home/kubuntu/Music/estudos-lilypond/asa-branca/asa-branca.ly:25:42:43">
<g transform="translate(59.7514, 33.2898)">
<circle stroke-linejoin="round" stroke-linecap="round" fill="currentColor" stroke="currentColor" stroke-width="0" r="0.5359"/>
</g>
<g color="rgb(100.0000%, 100.0000%, 100.0000%)">
<g transform="translate(59.7514, 33.2898)">
<circle stroke-linejoin="round" stroke-linecap="round" fill="currentColor" stroke="currentColor" stroke-width="0" r="0.4425"/>
</g>
</g>
<g transform="translate(59.5075, 33.6015)">
<text font-family="sans-serif" font-weight="bold" font-size="0.8734" text-anchor="start" fill="currentColor">
<tspan>F</tspan>
</text>
</g>
</a>
<g transform="translate(54.5387, 31.7898)">
<rect x="-0.0467" y="-0.5000" width="0.0934" height="3.2331" ry="0.0229" fill="currentColor"/>
</g>
<a style="color:inherit;" xlink:href="textedit:///home/kubuntu/Music/estudos-lilypond/asa-branca/asa-branca.ly:25:39:40">
<g transform="translate(54.0495, 34.7898)">
<circle stroke-linejoin="round" stroke-linecap="round" fill="currentColor" stroke="currentColor" stroke-width="0" r="0.5359"/>
</g>
<g color="rgb(100.0000%, 100.0000%, 100.0000%)">
<g transform="translate(54.0495, 34.7898)">
<circle stroke-linejoin="round" stroke-linecap="round" fill="currentColor" stroke="currentColor" stroke-width="0" r="0.4425"/>
</g>
</g>
<g transform="translate(53.7666, 35.1015)">
<text font-family="sans-serif" font-weight="bold" font-size="0.8734" text-anchor="start" fill="currentColor">
<tspan>C</tspan>
</text>
</g>
</a>
<a style="color:inherit;" xlink:href="textedit:///home/kubuntu/Music/estudos-lilypond/asa-branca/asa-branca.ly:38:18:19">
<g transform="translate(53.5135, 29.2277)">
<text font-family="sans-serif" font-size="2.6164" text-anchor="start" fill="currentColor">
<tspan>F</tspan>
</text>
</g>
</a>
<g transform="translate(4.0517, 32.7898)">
<path transform="scale(0.0040, -0.0040)" d="M264 -594c47 0 165 26 165 246c0 32 -2 64 -5 96c-5 -1 -44 -8 -89 -8c-193 0 -333 178 -333 372c0 178 133 306 251 440c-27 93 -49 170 -49 345c0 116 55 226 150 295c5 4 11 4 16 0c67 -81 132 -246 132 -359c0 -144 -87 -256 -183 -365c20 -69 39 -138 55 -208
c2 0 7 1 15 1c154 0 254 -127 254 -259c0 -112 -73 -212 -180 -245c3 -36 5 -72 5 -108c0 -19 0 -37 -1 -56c-7 -120 -89 -226 -206 -226c-108 0 -195 87 -195 195c0 58 53 104 112 104c54 0 95 -48 95 -104c0 -52 -43 -95 -95 -95c-12 0 -24 4 -35 9c26 -41 70 -70 121 -70
zM459 -205c71 24 117 92 117 166c0 92 -69 184 -179 193c1 -5 45 -212 62 -359zM71 31c0 -146 142 -251 267 -251c1 0 46 0 82 6c-7 63 -28 201 -64 367c-79 -9 -125 -62 -125 -121c0 -44 26 -92 82 -124c4 -4 7 -9 7 -14c0 -11 -9 -21 -20 -21c-14 0 -125 62 -125 186
c0 88 57 173 158 196c-14 60 -30 119 -46 178c-108 -121 -216 -242 -216 -402zM411 1050c-99 -50 -161 -151 -161 -262c0 -59 11 -123 33 -200c82 97 149 198 149 325c0 35 0 69 -21 137z" fill="currentColor"/>
</g>
<g transform="translate(20.8699, 31.7898)">
<rect x="-0.0467" y="-1.0000" width="0.0934" height="3.3044" ry="0.0229" fill="currentColor"/>
</g>
<a style="color:inherit;" xlink:href="textedit:///home/kubuntu/Music/estudos-lilypond/asa-branca/asa-branca.ly:25:10:11">
<g transform="translate(20.3806, 34.2898)">
<circle stroke-linejoin="round" stroke-linecap="round" fill="currentColor" stroke="currentColor" stroke-width="0" r="0.5359"/>
</g>
<g color="rgb(100.0000%, 100.0000%, 100.0000%)">
<g transform="translate(20.0587, 34.6015)">
<text font-family="sans-serif" font-weight="bold" font-size="0.8734" text-anchor="start" fill="currentColor">
<tspan>D</tspan>
</text>
</g>
</g>
</a>
<g transform="translate(2.2762, 28.7346)">
<text font-family="serif" font-size="1.7462" text-anchor="start" fill="currentColor">
<tspan>9</tspan>
</text>
</g>
<g transform="translate(17.2316, 31.7898)">
<rect x="-0.0467" y="-0.5000" width="0.0934" height="3.3044" ry="0.0229" fill="currentColor"/>
</g>
<a style="color:inherit;" xlink:href="textedit:///home/kubuntu/Music/estudos-lilypond/asa-branca/asa-branca.ly:25:8:9">
<g transform="translate(16.7424, 34.7898)">
<circle stroke-linejoin="round" stroke-linecap="round" fill="currentColor" stroke="currentColor" stroke-width="0" r="0.5359"/>
</g>
<g color="rgb(100.0000%, 100.0000%, 100.0000%)">
<g transform="translate(16.4595, 35.1015)">
<text font-family="sans-serif" font-weight="bold" font-size="0.8734" text-anchor="start" fill="currentColor">
<tspan>C</tspan>
</text>
</g>
</g>
</a>
<g transform="translate(13.5933, 31.7898)">
<rect x="-0.0467" y="-0.5000" width="0.0934" height="3.3044" ry="0.0229" fill="currentColor"/>
</g>
<a style="color:inherit;" xlink:href="textedit:///home/kubuntu/Music/estudos-lilypond/asa-branca/asa-branca.ly:25:5:6">
<g transform="translate(13.1041, 34.7898)">
<circle stroke-linejoin="round" stroke-linecap="round" fill="currentColor" stroke="currentColor" stroke-width="0" r="0.5359"/>
</g>
<g color="rgb(100.0000%, 100.0000%, 100.0000%)">
<g transform="translate(12.8212, 35.1015)">
<text font-family="sans-serif" font-weight="bold" font-size="0.8734" text-anchor="start" fill="currentColor">
<tspan>C</tspan>
</text>
</g>
</g>
</a>
<a style="color:inherit;" xlink:href="textedit:///home/kubuntu/Music/estudos-lilypond/asa-branca/asa-branca.ly:25:2:3">
<g transform="translate(9.0517, 31.7898)">
<path transform="scale(0.0040, -0.0040)" d="M-4 79c0 59 125 82 125 181c0 24 -8 47 -24 67l-39 46c-2 3 -3 6 -3 9c0 7 7 14 14 14c3 0 7 -1 10 -5l152 -182c7 -8 10 -17 10 -25c0 -59 -125 -82 -125 -181c0 -24 8 -47 24 -67l87 -104c2 -3 3 -5 3 -8c0 -7 -7 -14 -14 -14c-6 0 -48 48 -112 48
c-14 0 -52 -1 -52 -70c0 -35 11 -75 28 -96c6 -7 -4 -16 -10 -9c-46 55 -93 150 -93 204c0 12 0 40 36 40c34 0 85 -15 130 -37l-137 164c-7 8 -10 17 -10 25z" fill="currentColor"/>
</g>
</a>
<g transform="translate(31.6910, 31.7898)">
<rect x="-0.0467" y="-2.5000" width="0.0934" height="3.2331" ry="0.0229" fill="currentColor"/>
</g>
<a style="color:inherit;" xlink:href="textedit:///home/kubuntu/Music/estudos-lilypond/asa-branca/asa-branca.ly:25:18:19">
<g transform="translate(31.2018, 32.7898)">
<circle stroke-linejoin="round" stroke-linecap="round" fill="currentColor" stroke="currentColor" stroke-width="0" r="0.5359"/>
</g>
<g color="rgb(100.0000%, 100.0000%, 100.0000%)">
<g transform="translate(31.2018, 32.7898)">
<circle stroke-linejoin="round" stroke-linecap="round" fill="currentColor" stroke="currentColor" stroke-width="0" r="0.4425"/>
</g>
</g>
<g transform="translate(30.8896, 33.1015)">
<text font-family="sans-serif" font-weight="bold" font-size="0.8734" text-anchor="start" fill="currentColor">
<tspan>G</tspan>
</text>
</g>
</a>
<g transform="translate(25.9890, 31.7898)">
<rect x="-0.0467" y="-1.5000" width="0.0934" height="3.2331" ry="0.0229" fill="currentColor"/>
</g>
<a style="color:inherit;" xlink:href="textedit:///home/kubuntu/Music/estudos-lilypond/asa-branca/asa-branca.ly:25:15:16">
<g transform="translate(25.4998, 33.7898)">
<circle stroke-linejoin="round" stroke-linecap="round" fill="currentColor" stroke="currentColor" stroke-width="0" r="0.5359"/>
</g>
<g color="rgb(100.0000%, 100.0000%, 100.0000%)">
<g transform="translate(25.4998, 33.7898)">
<circle stroke-linejoin="round" stroke-linecap="round" fill="currentColor" stroke="currentColor" stroke-width="0" r="0.4425"/>
</g>
</g>
<g transform="translate(25.2559, 34.1015)">
<text font-family="sans-serif" font-weight="bold" font-size="0.8734" text-anchor="start" fill="currentColor">
<tspan>E</tspan>
</text>
</g>
</a>
<a style="color:inherit;" xlink:href="textedit:///home/kubuntu/Music/estudos-lilypond/asa-branca/asa-branca.ly:38:7:8">
<g transform="translate(24.9639, 29.2277)">
<text font-family="sans-serif" font-size="2.6164" text-anchor="start" fill="currentColor">
<tspan>C</tspan>
</text>
</g>
<g transform="translate(26.6223, 28.0385)">
<text font-family="sans-serif" font-size="1.8499" text-anchor="start" fill="currentColor">
<tspan>7</tspan>
</text>
</g>
</a>
<g transform="translate(3.2517, 45.6144)">
<rect x="53.0135" y="-0.0859" width="1.6078" height="0.1718" ry="0.0859" fill="currentColor"/>
</g>
<g transform="translate(3.2517, 45.6144)">
<rect x="46.6926" y="-0.0859" width="1.6078" height="0.1718" ry="0.0859" fill="currentColor"/>
</g>
<g transform="translate(24.4480, 42.6144)">
<rect x="0.0000" y="-2.0000" width="0.1365" height="4.0000" ry="0.0000" fill="currentColor"/>
</g>
<g transform="translate(64.6039, 42.6144)">
<rect x="0.0000" y="-2.0000" width="0.4310" height="4.0000" ry="0.0000" fill="currentColor"/>
</g>
<g transform="translate(64.2519, 42.6144)">
<rect x="0.0000" y="-2.0000" width="0.1365" height="4.0000" ry="0.0000" fill="currentColor"/>
</g>
<g transform="translate(54.2169, 42.6144)">
<rect x="0.0000" y="-2.0000" width="0.1365" height="4.0000" ry="0.0000" fill="currentColor"/>
</g>
<g transform="translate(37.5399, 42.6144)">
<rect x="0.0000" y="-2.0000" width="0.1365" height="4.0000" ry="0.0000" fill="currentColor"/>
</g>
<g transform="translate(3.2517, 44.6144)">
<line stroke-linejoin="round" stroke-linecap="round" stroke-width="0.0718" stroke="currentColor" x1="0.0359" y1="0" x2="61.7472" y2="0"/>
</g>
<g transform="translate(3.2517, 43.6144)">
<line stroke-linejoin="round" stroke-linecap="round" stroke-width="0.0718" stroke="currentColor" x1="0.0359" y1="0" x2="61.7472" y2="0"/>
</g>
<g transform="translate(3.2517, 42.6144)">
<line stroke-linejoin="round" stroke-linecap="round" stroke-width="0.0718" stroke="currentColor" x1="0.0359" y1="0" x2="61.7472" y2="0"/>
</g>
<g transform="translate(3.2517, 41.6144)">
<line stroke-linejoin="round" stroke-linecap="round" stroke-width="0.0718" stroke="currentColor" x1="0.0359" y1="0" x2="61.7472" y2="0"/>
</g>
<g transform="translate(3.2517, 40.6144)">
<line stroke-linejoin="round" stroke-linecap="round" stroke-width="0.0718" stroke="currentColor" x1="0.0359" y1="0" x2="61.7472" y2="0"/>
</g>
<g transform="translate(47.4115, 42.6144)">
<rect x="-0.0467" y="-1.0000" width="0.0934" height="3.3044" ry="0.0229" fill="currentColor"/>
</g>
<a style="color:inherit;" xlink:href="textedit:///home/kubuntu/Music/estudos-lilypond/asa-branca/asa-branca.ly:28:32:33">
<g transform="translate(46.9223, 45.1144)">
<circle stroke-linejoin="round" stroke-linecap="round" fill="currentColor" stroke="currentColor" stroke-width="0" r="0.5359"/>
</g>
<g color="rgb(100.0000%, 100.0000%, 100.0000%)">
<g transform="translate(46.6004, 45.4261)">
<text font-family="sans-serif" font-weight="bold" font-size="0.8734" text-anchor="start" fill="currentColor">
<tspan>D</tspan>
</text>
</g>
</g>
</a>
<g transform="translate(43.5856, 42.6144)">
<rect x="-0.0467" y="-1.0000" width="0.0934" height="3.3044" ry="0.0229" fill="currentColor"/>
</g>
<a style="color:inherit;" xlink:href="textedit:///home/kubuntu/Music/estudos-lilypond/asa-branca/asa-branca.ly:28:29:30">
<g transform="translate(43.0963, 45.1144)">
<circle stroke-linejoin="round" stroke-linecap="round" fill="currentColor" stroke="currentColor" stroke-width="0" r="0.5359"/>
</g>
<g color="rgb(100.0000%, 100.0000%, 100.0000%)">
<g transform="translate(42.7744, 45.4261)">
<text font-family="sans-serif" font-weight="bold" font-size="0.8734" text-anchor="start" fill="currentColor">
<tspan>D</tspan>
</text>
</g>
</g>
</a>
<a style="color:inherit;" xlink:href="textedit:///home/kubuntu/Music/estudos-lilypond/asa-branca/asa-branca.ly:28:34:35">
<g transform="translate(50.7483, 45.6144)">
<circle stroke-linejoin="round" stroke-linecap="round" fill="currentColor" stroke="currentColor" stroke-width="0" r="0.5359"/>
</g>
<g color="rgb(100.0000%, 100.0000%, 100.0000%)">
<g transform="translate(50.4654, 45.9261)">
<text font-family="sans-serif" font-weight="bold" font-size="0.8734" text-anchor="start" fill="currentColor">
<tspan>C</tspan>
</text>
</g>
</g>
</a>
<a style="color:inherit;" xlink:href="textedit:///home/kubuntu/Music/estudos-lilypond/asa-branca/asa-branca.ly:28:26:27">
<g transform="translate(38.8563, 42.6144)">
<path transform="scale(0.0040, -0.0040)" d="M-4 79c0 59 125 82 125 181c0 24 -8 47 -24 67l-39 46c-2 3 -3 6 -3 9c0 7 7 14 14 14c3 0 7 -1 10 -5l152 -182c7 -8 10 -17 10 -25c0 -59 -125 -82 -125 -181c0 -24 8 -47 24 -67l87 -104c2 -3 3 -5 3 -8c0 -7 -7 -14 -14 -14c-6 0 -48 48 -112 48
c-14 0 -52 -1 -52 -70c0 -35 11 -75 28 -96c6 -7 -4 -16 -10 -9c-46 55 -93 150 -93 204c0 12 0 40 36 40c34 0 85 -15 130 -37l-137 164c-7 8 -10 17 -10 25z" fill="currentColor"/>
</g>
</a>
<g transform="translate(51.2375, 42.6144)">
<rect x="-0.0467" y="-0.5000" width="0.0934" height="3.3044" ry="0.0229" fill="currentColor"/>
</g>
<a style="color:inherit;" xlink:href="textedit:///home/kubuntu/Music/estudos-lilypond/asa-branca/asa-branca.ly:29:2:3">
<g transform="translate(57.0692, 45.6144)">
<circle stroke-linejoin="round" stroke-linecap="round" fill="currentColor" stroke="currentColor" stroke-width="0" r="0.5359"/>
</g>
<g color="rgb(100.0000%, 100.0000%, 100.0000%)">
<g transform="translate(57.0692, 45.6144)">
<circle stroke-linejoin="round" stroke-linecap="round" fill="currentColor" stroke="currentColor" stroke-width="0" r="0.4425"/>
</g>
</g>
<g transform="translate(56.7862, 45.9261)">
<text font-family="sans-serif" font-weight="bold" font-size="0.8734" text-anchor="start" fill="currentColor">
<tspan>C</tspan>
</text>
</g>
</a>
<a style="color:inherit;" xlink:href="textedit:///home/kubuntu/Music/estudos-lilypond/asa-branca/asa-branca.ly:39:18:19">
<g transform="translate(56.5332, 40.0523)">
<text font-family="sans-serif" font-size="2.6164" text-anchor="start" fill="currentColor">
<tspan>C</tspan>
</text>
</g>
</a>
<g transform="translate(17.6070, 42.6144)">
<rect x="-0.0467" y="-1.5000" width="0.0934" height="3.3044" ry="0.0229" fill="currentColor"/>
</g>
<a style="color:inherit;" xlink:href="textedit:///home/kubuntu/Music/estudos-lilypond/asa-branca/asa-branca.ly:28:8:9">
<g transform="translate(17.1177, 44.6144)">
<circle stroke-linejoin="round" stroke-linecap="round" fill="currentColor" stroke="currentColor" stroke-width="0" r="0.5359"/>
</g>
<g color="rgb(100.0000%, 100.0000%, 100.0000%)">
<g transform="translate(16.8739, 44.9261)">
<text font-family="sans-serif" font-weight="bold" font-size="0.8734" text-anchor="start" fill="currentColor">
<tspan>E</tspan>
</text>
</g>
</g>
</a>
<g transform="translate(13.7810, 42.6144)">
<rect x="-0.0467" y="-1.5000" width="0.0934" height="3.3044" ry="0.0229" fill="currentColor"/>
</g>
<a style="color:inherit;" xlink:href="textedit:///home/kubuntu/Music/estudos-lilypond/asa-branca/asa-branca.ly:28:5:6">
<g transform="translate(13.2918, 44.6144)">
<circle stroke-linejoin="round" stroke-linecap="round" fill="currentColor" stroke="currentColor" stroke-width="0" r="0.5359"/>
</g>
<g color="rgb(100.0000%, 100.0000%, 100.0000%)">
<g transform="translate(13.0479, 44.9261)">
<text font-family="sans-serif" font-weight="bold" font-size="0.8734" text-anchor="start" fill="currentColor">
<tspan>E</tspan>
</text>
</g>
</g>
</a>
<a style="color:inherit;" xlink:href="textedit:///home/kubuntu/Music/estudos-lilypond/asa-branca/asa-branca.ly:28:2:3">
<g transform="translate(9.0517, 42.6144)">
<path transform="scale(0.0040, -0.0040)" d="M-4 79c0 59 125 82 125 181c0 24 -8 47 -24 67l-39 46c-2 3 -3 6 -3 9c0 7 7 14 14 14c3 0 7 -1 10 -5l152 -182c7 -8 10 -17 10 -25c0 -59 -125 -82 -125 -181c0 -24 8 -47 24 -67l87 -104c2 -3 3 -5 3 -8c0 -7 -7 -14 -14 -14c-6 0 -48 48 -112 48
c-14 0 -52 -1 -52 -70c0 -35 11 -75 28 -96c6 -7 -4 -16 -10 -9c-46 55 -93 150 -93 204c0 12 0 40 36 40c34 0 85 -15 130 -37l-137 164c-7 8 -10 17 -10 25z" fill="currentColor"/>
</g>
</a>
<g transform="translate(1.3007, 39.5610)">
<text font-family="serif" font-size="1.7462" text-anchor="start" fill="currentColor">
<tspan>13</tspan>
</text>
</g>
<g transform="translate(4.0517, 43.6144)">
<path transform="scale(0.0040, -0.0040)" d="M264 -594c47 0 165 26 165 246c0 32 -2 64 -5 96c-5 -1 -44 -8 -89 -8c-193 0 -333 178 -333 372c0 178 133 306 251 440c-27 93 -49 170 -49 345c0 116 55 226 150 295c5 4 11 4 16 0c67 -81 132 -246 132 -359c0 -144 -87 -256 -183 -365c20 -69 39 -138 55 -208
c2 0 7 1 15 1c154 0 254 -127 254 -259c0 -112 -73 -212 -180 -245c3 -36 5 -72 5 -108c0 -19 0 -37 -1 -56c-7 -120 -89 -226 -206 -226c-108 0 -195 87 -195 195c0 58 53 104 112 104c54 0 95 -48 95 -104c0 -52 -43 -95 -95 -95c-12 0 -24 4 -35 9c26 -41 70 -70 121 -70
zM459 -205c71 24 117 92 117 166c0 92 -69 184 -179 193c1 -5 45 -212 62 -359zM71 31c0 -146 142 -251 267 -251c1 0 46 0 82 6c-7 63 -28 201 -64 367c-79 -9 -125 -62 -125 -121c0 -44 26 -92 82 -124c4 -4 7 -9 7 -14c0 -11 -9 -21 -20 -21c-14 0 -125 62 -125 186
c0 88 57 173 158 196c-14 60 -30 119 -46 178c-108 -121 -216 -242 -216 -402zM411 1050c-99 -50 -161 -151 -161 -262c0 -59 11 -123 33 -200c82 97 149 198 149 325c0 35 0 69 -21 137z" fill="currentColor"/>
</g>
<g transform="translate(32.5618, 42.6144)">
<rect x="-0.0467" y="-1.5000" width="0.0934" height="3.2331" ry="0.0229" fill="currentColor"/>
</g>
<a style="color:inherit;" xlink:href="textedit:///home/kubuntu/Music/estudos-lilypond/asa-branca/asa-branca.ly:28:18:19">
<g transform="translate(32.0726, 44.6144)">
<circle stroke-linejoin="round" stroke-linecap="round" fill="currentColor" stroke="currentColor" stroke-width="0" r="0.5359"/>
</g>
<g color="rgb(100.0000%, 100.0000%, 100.0000%)">
<g transform="translate(32.0726, 44.6144)">
<circle stroke-linejoin="round" stroke-linecap="round" fill="currentColor" stroke="currentColor" stroke-width="0" r="0.4425"/>
</g>
</g>
<g transform="translate(31.8287, 44.9261)">
<text font-family="sans-serif" font-weight="bold" font-size="0.8734" text-anchor="start" fill="currentColor">
<tspan>E</tspan>
</text>
</g>
</a>
<g transform="translate(26.7895, 42.6144)">
<rect x="-0.0467" y="-1.0000" width="0.0934" height="3.2331" ry="0.0229" fill="currentColor"/>
</g>
<a style="color:inherit;" xlink:href="textedit:///home/kubuntu/Music/estudos-lilypond/asa-branca/asa-branca.ly:28:10:11">
<g transform="translate(20.9437, 45.1144)">
<circle stroke-linejoin="round" stroke-linecap="round" fill="currentColor" stroke="currentColor" stroke-width="0" r="0.5359"/>
</g>
<g color="rgb(100.0000%, 100.0000%, 100.0000%)">
<g transform="translate(20.6218, 45.4261)">
<text font-family="sans-serif" font-weight="bold" font-size="0.8734" text-anchor="start" fill="currentColor">
<tspan>D</tspan>
</text>
</g>
</g>
</a>
<a style="color:inherit;" xlink:href="textedit:///home/kubuntu/Music/estudos-lilypond/asa-branca/asa-branca.ly:39:7:8">
<g transform="translate(25.7644, 40.0523)">
<text font-family="sans-serif" font-size="2.6164" text-anchor="start" fill="currentColor">
<tspan>G</tspan>
</text>
</g>
</a>
<g transform="translate(21.4329, 42.6144)">
<rect x="-0.0467" y="-1.0000" width="0.0934" height="3.3044" ry="0.0229" fill="currentColor"/>
</g>
<a style="color:inherit;" xlink:href="textedit:///home/kubuntu/Music/estudos-lilypond/asa-branca/asa-branca.ly:28:15:16">
<g transform="translate(26.3003, 45.1144)">
<circle stroke-linejoin="round" stroke-linecap="round" fill="currentColor" stroke="currentColor" stroke-width="0" r="0.5359"/>
</g>
<g color="rgb(100.0000%, 100.0000%, 100.0000%)">
<g transform="translate(26.3003, 45.1144)">
<circle stroke-linejoin="round" stroke-linecap="round" fill="currentColor" stroke="currentColor" stroke-width="0" r="0.4425"/>
</g>
</g>
<g transform="translate(25.9784, 45.4261)">
<text font-family="sans-serif" font-weight="bold" font-size="0.8734" text-anchor="start" fill="currentColor">
<tspan>D</tspan>
</text>
</g>
</a>
</svg>
