<svg xmlns="http://www.w3.org/2000/svg" xmlns:xlink="http://www.w3.org/1999/xlink" version="1.2" width="210.00mm" height="148.00mm" viewBox="0.0000 -0.0000 119.5016 84.2202">
<style type="text/css">
<![CDATA[
tspan { white-space: pre; }
]]>
</style>
<g transform="translate(41.2110, 4.7926)">
<text font-family="serif" font-weight="bold" font-size="3.4929" text-anchor="start" fill="currentColor">
<tspan>Death Come Near Me</tspan>
</text>
</g>
<g transform="translate(102.8169, 8.2926)">
<text font-family="serif" font-size="2.2000" text-anchor="start" fill="currentColor">
<tspan>Draconian</tspan>
</text>
</g>
<g transform="translate(14.2264, 14.5935)">
<line stroke-linejoin="round" stroke-linecap="round" stroke-width="0.1000" stroke="currentColor" x1="0.0500" y1="0" x2="72.1480" y2="0"/>
</g>
<g transform="translate(14.2264, 13.5935)">
<line stroke-linejoin="round" stroke-linecap="round" stroke-width="0.1000" stroke="currentColor" x1="0.0500" y1="0" x2="72.1480" y2="0"/>
</g>
<g transform="translate(14.2264, 12.5935)">
<line stroke-linejoin="round" stroke-linecap="round" stroke-width="0.1000" stroke="currentColor" x1="0.0500" y1="0" x2="72.1480" y2="0"/>
</g>
<g transform="translate(14.2264, 11.5935)">
<line stroke-linejoin="round" stroke-linecap="round" stroke-width="0.1000" stroke="currentColor" x1="0.0500" y1="0" x2="72.1480" y2="0"/>
</g>
<g transform="translate(14.2264, 10.5935)">
<line stroke-linejoin="round" stroke-linecap="round" stroke-width="0.1000" stroke="currentColor" x1="0.0500" y1="0" x2="72.1480" y2="0"/>
</g>
<g transform="translate(14.2264, 23.5935)">
<line stroke-linejoin="round" stroke-linecap="round" stroke-width="0.1000" stroke="currentColor" x1="0.0500" y1="0" x2="23.7622" y2="0"/>
</g>
<g transform="translate(14.2264, 22.5935)">
<line stroke-linejoin="round" stroke-linecap="round" stroke-width="0.1000" stroke="currentColor" x1="0.0500" y1="0" x2="23.7622" y2="0"/>
</g>
<g transform="translate(14.2264, 21.5935)">
<line stroke-linejoin="round" stroke-linecap="round" stroke-width="0.1000" stroke="currentColor" x1="0.0500" y1="0" x2="23.7622" y2="0"/>
</g>
<g transform="translate(14.2264, 20.5935)">
<line stroke-linejoin="round" stroke-linecap="round" stroke-width="0.1000" stroke="currentColor" x1="0.0500" y1="0" x2="23.7622" y2="0"/>
</g>
<g transform="translate(14.2264, 19.5935)">
<line stroke-linejoin="round" stroke-linecap="round" stroke-width="0.1000" stroke="currentColor" x1="0.0500" y1="0" x2="23.7622" y2="0"/>
</g>
<g transform="translate(57.6173, 12.5935)">
<rect x="0.0000" y="-2.0000" width="0.1900" height="4.0000" ry="0.0000" fill="currentColor"/>
</g>
<g transform="translate(82.5364, 12.5935)">
<rect x="0.0000" y="-2.0000" width="0.1900" height="4.0000" ry="0.0000" fill="currentColor"/>
</g>
<g transform="translate(70.7044, 12.5935)">
<rect x="0.0000" y="-2.0000" width="0.1900" height="4.0000" ry="0.0000" fill="currentColor"/>
</g>
<g transform="translate(45.1391, 12.5935)">
<rect x="0.0000" y="-2.0000" width="0.1900" height="4.0000" ry="0.0000" fill="currentColor"/>
</g>
<g transform="translate(33.8899, 21.5935)">
<rect x="0.0000" y="-2.0000" width="0.1900" height="4.0000" ry="0.0000" fill="currentColor"/>
</g>
<g transform="translate(33.8899, 12.5935)">
<rect x="0.0000" y="-2.0000" width="0.1900" height="4.0000" ry="0.0000" fill="currentColor"/>
</g>
<a style="color:inherit;" xlink:href="textedit:///home/kubuntu/Music/estudos-lilypond/death-come-near-me/dcnm-wizard.ly:35:2:3">
<g transform="translate(60.2274, 12.5935)">
<circle stroke-linejoin="round" stroke-linecap="round" fill="currentColor" stroke="currentColor" stroke-width="0" r="0.5500"/>
</g>
<g color="rgb(100.0000%, 100.0000%, 100.0000%)">
<g transform="translate(59.9371, 12.9052)">
<text font-family="sans-serif" font-weight="bold" font-size="0.8729" text-anchor="start" fill="currentColor">
<tspan>B</tspan>
</text>
</g>
</g>
</a>
<g transform="translate(59.7424, 12.5935)">
<rect x="-0.0650" y="0.1878" width="0.1300" height="3.1455" ry="0.0400" fill="currentColor"/>
</g>
<g transform="translate(58.5274, 12.5935)">
<path transform="scale(0.0040, -0.0040)" d="M27 41l-1 -66v-11c0 -22 1 -44 4 -66c45 38 93 80 93 139c0 33 -14 67 -43 67c-31 0 -52 -30 -53 -63zM-15 -138l-12 595c8 5 18 8 27 8s19 -3 27 -8l-7 -345c25 21 58 34 91 34c52 0 89 -48 89 -102c0 -80 -86 -117 -147 -169c-15 -13 -24 -38 -45 -38
c-13 0 -23 11 -23 25z" fill="currentColor"/>
</g>
<a style="color:inherit;" xlink:href="textedit:///home/kubuntu/Music/estudos-lilypond/death-come-near-me/dcnm-wizard.ly:35:7:8">
<g transform="translate(63.0076, 13.0935)">
<circle stroke-linejoin="round" stroke-linecap="round" fill="currentColor" stroke="currentColor" stroke-width="0" r="0.5500"/>
</g>
<g color="rgb(100.0000%, 100.0000%, 100.0000%)">
<g transform="translate(62.7003, 13.4065)">
<text font-family="sans-serif" font-weight="bold" font-size="0.8729" text-anchor="start" fill="currentColor">
<tspan>A</tspan>
</text>
</g>
</g>
</a>
<g transform="translate(63.4926, 12.5935)">
<rect x="-0.0650" y="-3.0000" width="0.1300" height="3.3122" ry="0.0400" fill="currentColor"/>
</g>
<a style="color:inherit;" xlink:href="textedit:///home/kubuntu/Music/estudos-lilypond/death-come-near-me/dcnm-wizard.ly:34:5:6">
<g transform="translate(49.9384, 11.0935)">
<circle stroke-linejoin="round" stroke-linecap="round" fill="currentColor" stroke="currentColor" stroke-width="0" r="0.5500"/>
</g>
<g color="rgb(100.0000%, 100.0000%, 100.0000%)">
<g transform="translate(49.6994, 11.4052)">
<text font-family="sans-serif" font-weight="bold" font-size="0.8729" text-anchor="start" fill="currentColor">
<tspan>E</tspan>
</text>
</g>
</g>
</a>
<g transform="translate(49.4534, 12.5935)">
<rect x="-0.0650" y="-1.3122" width="0.1300" height="3.3122" ry="0.0400" fill="currentColor"/>
</g>
<g transform="translate(48.2384, 11.0935)">
<path transform="scale(0.0040, -0.0040)" d="M27 41l-1 -66v-11c0 -22 1 -44 4 -66c45 38 93 80 93 139c0 33 -14 67 -43 67c-31 0 -52 -30 -53 -63zM-15 -138l-12 595c8 5 18 8 27 8s19 -3 27 -8l-7 -345c25 21 58 34 91 34c52 0 89 -48 89 -102c0 -80 -86 -117 -147 -169c-15 -13 -24 -38 -45 -38
c-13 0 -23 11 -23 25z" fill="currentColor"/>
</g>
<a style="color:inherit;" xlink:href="textedit:///home/kubuntu/Music/estudos-lilypond/death-come-near-me/dcnm-wizard.ly:34:9:10">
<g transform="translate(52.7364, 11.5935)">
<circle stroke-linejoin="round" stroke-linecap="round" fill="currentColor" stroke="currentColor" stroke-width="0" r="0.5500"/>
</g>
<g color="rgb(100.0000%, 100.0000%, 100.0000%)">
<g transform="translate(52.4120, 11.9052)">
<text font-family="sans-serif" font-weight="bold" font-size="0.8729" text-anchor="start" fill="currentColor">
<tspan>D</tspan>
</text>
</g>
</g>
</a>
<g transform="translate(52.2514, 12.5935)">
<rect x="-0.0650" y="-0.8122" width="0.1300" height="3.3122" ry="0.0400" fill="currentColor"/>
</g>
<a style="color:inherit;" xlink:href="textedit:///home/kubuntu/Music/estudos-lilypond/death-come-near-me/dcnm-wizard.ly:34:11:12">
<g transform="translate(55.5345, 12.0935)">
<circle stroke-linejoin="round" stroke-linecap="round" fill="currentColor" stroke="currentColor" stroke-width="0" r="0.5500"/>
</g>
<g color="rgb(100.0000%, 100.0000%, 100.0000%)">
<g transform="translate(55.2613, 12.4052)">
<text font-family="sans-serif" font-weight="bold" font-size="0.8729" text-anchor="start" fill="currentColor">
<tspan>C</tspan>
</text>
</g>
</g>
</a>
<g transform="translate(55.0495, 12.5935)">
<rect x="-0.0650" y="-0.3122" width="0.1300" height="3.3122" ry="0.0400" fill="currentColor"/>
</g>
<a style="color:inherit;" xlink:href="textedit:///home/kubuntu/Music/estudos-lilypond/death-come-near-me/dcnm-wizard.ly:36:7:8">
<g transform="translate(76.0947, 13.0935)">
<circle stroke-linejoin="round" stroke-linecap="round" fill="currentColor" stroke="currentColor" stroke-width="0" r="0.5500"/>
</g>
<g color="rgb(100.0000%, 100.0000%, 100.0000%)">
<g transform="translate(75.7874, 13.4065)">
<text font-family="sans-serif" font-weight="bold" font-size="0.8729" text-anchor="start" fill="currentColor">
<tspan>A</tspan>
</text>
</g>
</g>
</a>
<g transform="translate(76.5797, 12.5935)">
<rect x="-0.0650" y="-3.0000" width="0.1300" height="3.3122" ry="0.0400" fill="currentColor"/>
</g>
<a style="color:inherit;" xlink:href="textedit:///home/kubuntu/Music/estudos-lilypond/death-come-near-me/dcnm-wizard.ly:36:9:10">
<g transform="translate(78.8927, 13.5935)">
<circle stroke-linejoin="round" stroke-linecap="round" fill="currentColor" stroke="currentColor" stroke-width="0" r="0.5500"/>
</g>
<g color="rgb(100.0000%, 100.0000%, 100.0000%)">
<g transform="translate(78.8927, 13.5935)">
<circle stroke-linejoin="round" stroke-linecap="round" fill="currentColor" stroke="currentColor" stroke-width="0" r="0.4200"/>
</g>
</g>
<g transform="translate(78.5683, 13.9052)">
<text font-family="sans-serif" font-weight="bold" font-size="0.8729" text-anchor="start" fill="currentColor">
<tspan>G</tspan>
</text>
</g>
</a>
<g transform="translate(79.3777, 12.5935)">
<rect x="-0.0650" y="-2.5000" width="0.1300" height="3.2386" ry="0.0400" fill="currentColor"/>
</g>
<a style="color:inherit;" xlink:href="textedit:///home/kubuntu/Music/estudos-lilypond/death-come-near-me/dcnm-wizard.ly:36:12:13">
<g transform="translate(84.1764, 14.0935)">
<circle stroke-linejoin="round" stroke-linecap="round" fill="currentColor" stroke="currentColor" stroke-width="0" r="0.5500"/>
</g>
<g color="rgb(100.0000%, 100.0000%, 100.0000%)">
<g transform="translate(83.9374, 14.4052)">
<text font-family="sans-serif" font-weight="bold" font-size="0.8729" text-anchor="start" fill="currentColor">
<tspan>F</tspan>
</text>
</g>
</g>
</a>
<g transform="translate(84.6614, 12.5935)">
<rect x="-0.0650" y="-2.0000" width="0.1300" height="3.3122" ry="0.0400" fill="currentColor"/>
</g>
<a style="color:inherit;" xlink:href="textedit:///home/kubuntu/Music/estudos-lilypond/death-come-near-me/dcnm-wizard.ly:35:9:10">
<g transform="translate(65.8234, 12.5935)">
<circle stroke-linejoin="round" stroke-linecap="round" fill="currentColor" stroke="currentColor" stroke-width="0" r="0.5500"/>
</g>
<g color="rgb(100.0000%, 100.0000%, 100.0000%)">
<g transform="translate(65.5332, 12.9052)">
<text font-family="sans-serif" font-weight="bold" font-size="0.8729" text-anchor="start" fill="currentColor">
<tspan>B</tspan>
</text>
</g>
</g>
</a>
<g transform="translate(65.3384, 12.5935)">
<rect x="-0.0650" y="0.1878" width="0.1300" height="3.1455" ry="0.0400" fill="currentColor"/>
</g>
<a style="color:inherit;" xlink:href="textedit:///home/kubuntu/Music/estudos-lilypond/death-come-near-me/dcnm-wizard.ly:35:13:14">
<g transform="translate(68.6215, 12.0935)">
<circle stroke-linejoin="round" stroke-linecap="round" fill="currentColor" stroke="currentColor" stroke-width="0" r="0.5500"/>
</g>
<g color="rgb(100.0000%, 100.0000%, 100.0000%)">
<g transform="translate(68.3483, 12.4052)">
<text font-family="sans-serif" font-weight="bold" font-size="0.8729" text-anchor="start" fill="currentColor">
<tspan>C</tspan>
</text>
</g>
</g>
</a>
<g transform="translate(68.1365, 12.5935)">
<rect x="-0.0650" y="-0.3122" width="0.1300" height="3.3122" ry="0.0400" fill="currentColor"/>
</g>
<a style="color:inherit;" xlink:href="textedit:///home/kubuntu/Music/estudos-lilypond/death-come-near-me/dcnm-wizard.ly:36:2:3">
<g transform="translate(73.3144, 12.5935)">
<circle stroke-linejoin="round" stroke-linecap="round" fill="currentColor" stroke="currentColor" stroke-width="0" r="0.5500"/>
</g>
<g color="rgb(100.0000%, 100.0000%, 100.0000%)">
<g transform="translate(73.0242, 12.9052)">
<text font-family="sans-serif" font-weight="bold" font-size="0.8729" text-anchor="start" fill="currentColor">
<tspan>B</tspan>
</text>
</g>
</g>
</a>
<g transform="translate(72.8294, 12.5935)">
<rect x="-0.0650" y="0.1878" width="0.1300" height="3.1455" ry="0.0400" fill="currentColor"/>
</g>
<g transform="translate(71.6144, 12.5935)">
<path transform="scale(0.0040, -0.0040)" d="M27 41l-1 -66v-11c0 -22 1 -44 4 -66c45 38 93 80 93 139c0 33 -14 67 -43 67c-31 0 -52 -30 -53 -63zM-15 -138l-12 595c8 5 18 8 27 8s19 -3 27 -8l-7 -345c25 21 58 34 91 34c52 0 89 -48 89 -102c0 -80 -86 -117 -147 -169c-15 -13 -24 -38 -45 -38
c-13 0 -23 11 -23 25z" fill="currentColor"/>
</g>
<a style="color:inherit;" xlink:href="textedit:///home/kubuntu/Music/estudos-lilypond/death-come-near-me/dcnm-wizard.ly:32:5:6">
<g transform="translate(26.3511, 11.0935)">
<circle stroke-linejoin="round" stroke-linecap="round" fill="currentColor" stroke="currentColor" stroke-width="0" r="0.5500"/>
</g>
<g color="rgb(100.0000%, 100.0000%, 100.0000%)">
<g transform="translate(26.1121, 11.4052)">
<text font-family="sans-serif" font-weight="bold" font-size="0.8729" text-anchor="start" fill="currentColor">
<tspan>E</tspan>
</text>
</g>
</g>
</a>
<a style="color:inherit;" xlink:href="textedit:///home/kubuntu/Music/estudos-lilypond/death-come-near-me/dcnm-wizard.ly:41:6:7">
<g transform="translate(26.3511, 20.0935)">
<circle stroke-linejoin="round" stroke-linecap="round" fill="currentColor" stroke="currentColor" stroke-width="0" r="0.5500"/>
</g>
<g color="rgb(100.0000%, 100.0000%, 100.0000%)">
<g transform="translate(26.1121, 20.4052)">
<text font-family="sans-serif" font-weight="bold" font-size="0.8729" text-anchor="start" fill="currentColor">
<tspan>E</tspan>
</text>
</g>
</g>
</a>
<g transform="translate(25.8661, 12.5935)">
<rect x="-0.0650" y="-1.3122" width="0.1300" height="3.3122" ry="0.0400" fill="currentColor"/>
</g>
<g transform="translate(24.6511, 11.0935)">
<path transform="scale(0.0040, -0.0040)" d="M27 41l-1 -66v-11c0 -22 1 -44 4 -66c45 38 93 80 93 139c0 33 -14 67 -43 67c-31 0 -52 -30 -53 -63zM-15 -138l-12 595c8 5 18 8 27 8s19 -3 27 -8l-7 -345c25 21 58 34 91 34c52 0 89 -48 89 -102c0 -80 -86 -117 -147 -169c-15 -13 -24 -38 -45 -38
c-13 0 -23 11 -23 25z" fill="currentColor"/>
</g>
<g transform="translate(25.8661, 21.5935)">
<rect x="-0.0650" y="-1.3122" width="0.1300" height="3.3122" ry="0.0400" fill="currentColor"/>
</g>
<g transform="translate(24.6511, 20.0935)">
<path transform="scale(0.0040, -0.0040)" d="M27 41l-1 -66v-11c0 -22 1 -44 4 -66c45 38 93 80 93 139c0 33 -14 67 -43 67c-31 0 -52 -30 -53 -63zM-15 -138l-12 595c8 5 18 8 27 8s19 -3 27 -8l-7 -345c25 21 58 34 91 34c52 0 89 -48 89 -102c0 -80 -86 -117 -147 -169c-15 -13 -24 -38 -45 -38
c-13 0 -23 11 -23 25z" fill="currentColor"/>
</g>
<a style="color:inherit;" xlink:href="textedit:///home/kubuntu/Music/estudos-lilypond/death-come-near-me/dcnm-wizard.ly:32:9:10">
<g transform="translate(29.0242, 11.5935)">
<circle stroke-linejoin="round" stroke-linecap="round" fill="currentColor" stroke="currentColor" stroke-width="0" r="0.5500"/>
</g>
<g color="rgb(100.0000%, 100.0000%, 100.0000%)">
<g transform="translate(28.6998, 11.9052)">
<text font-family="sans-serif" font-weight="bold" font-size="0.8729" text-anchor="start" fill="currentColor">
<tspan>D</tspan>
</text>
</g>
</g>
</a>
<a style="color:inherit;" xlink:href="textedit:///home/kubuntu/Music/estudos-lilypond/death-come-near-me/dcnm-wizard.ly:41:10:11">
<g transform="translate(29.0242, 21.0935)">
<circle stroke-linejoin="round" stroke-linecap="round" fill="currentColor" stroke="currentColor" stroke-width="0" r="0.5500"/>
</g>
<g color="rgb(100.0000%, 100.0000%, 100.0000%)">
<g transform="translate(28.7510, 21.4052)">
<text font-family="sans-serif" font-weight="bold" font-size="0.8729" text-anchor="start" fill="currentColor">
<tspan>C</tspan>
</text>
</g>
</g>
</a>
<g transform="translate(28.5392, 12.5935)">
<rect x="-0.0650" y="-0.8122" width="0.1300" height="3.3122" ry="0.0400" fill="currentColor"/>
</g>
<g transform="translate(28.5392, 21.5935)">
<rect x="-0.0650" y="-0.3122" width="0.1300" height="3.3122" ry="0.0400" fill="currentColor"/>
</g>
<a style="color:inherit;" xlink:href="textedit:///home/kubuntu/Music/estudos-lilypond/death-come-near-me/dcnm-wizard.ly:25:2:3">
<g transform="translate(19.2264, 21.5935)">
<path transform="scale(0.0040, -0.0040)" d="M196 117h117c0 -48 27 -94 72 -94c8 0 12 -5 12 -11s-4 -12 -12 -12c-44 0 -87 13 -131 13s-87 -13 -131 -13c-8 0 -12 6 -12 12s4 11 12 11c45 0 73 46 73 94zM-2 148c0 12 140 143 140 336c0 10 7 19 16 16c23 -7 47 -13 71 -13s48 6 71 13c14 4 23 -9 17 -16
l-284 -330h167v131c0 34 34 27 68 72c22 30 23 56 36 56c6 0 13 -5 13 -14v-245h72c10 0 15 -7 15 -14s-5 -15 -15 -15h-72v-8h-117v8h-167c-23 0 -31 14 -31 23z" fill="currentColor"/>
</g>
<g transform="translate(19.2264, 23.6095)">
<path transform="scale(0.0040, -0.0040)" d="M196 117h117c0 -48 27 -94 72 -94c8 0 12 -5 12 -11s-4 -12 -12 -12c-44 0 -87 13 -131 13s-87 -13 -131 -13c-8 0 -12 6 -12 12s4 11 12 11c45 0 73 46 73 94zM-2 148c0 12 140 143 140 336c0 10 7 19 16 16c23 -7 47 -13 71 -13s48 6 71 13c14 4 23 -9 17 -16
l-284 -330h167v131c0 34 34 27 68 72c22 30 23 56 36 56c6 0 13 -5 13 -14v-245h72c10 0 15 -7 15 -14s-5 -15 -15 -15h-72v-8h-117v8h-167c-23 0 -31 14 -31 23z" fill="currentColor"/>
</g>
</a>
<g transform="translate(14.1664, 17.0935)">
<rect x="0.0000" y="-6.5500" width="0.1600" height="13.1000" ry="0.0500" fill="currentColor"/>
</g>
<a style="color:inherit;" xlink:href="textedit:///home/kubuntu/Music/estudos-lilypond/death-come-near-me/dcnm-wizard.ly:32:2:3">
<g transform="translate(23.3811, 11.5935)">
<circle stroke-linejoin="round" stroke-linecap="round" fill="currentColor" stroke="currentColor" stroke-width="0" r="0.5500"/>
</g>
<g color="rgb(100.0000%, 100.0000%, 100.0000%)">
<g transform="translate(23.0568, 11.9052)">
<text font-family="sans-serif" font-weight="bold" font-size="0.8729" text-anchor="start" fill="currentColor">
<tspan>D</tspan>
</text>
</g>
</g>
</a>
<g transform="translate(15.0264, 13.5935)">
<path transform="scale(0.0040, -0.0040)" d="M266 -635h-6c-108 0 -195 88 -195 197c0 58 53 103 112 103c54 0 95 -47 95 -103c0 -52 -43 -95 -95 -95c-11 0 -21 2 -31 6c26 -39 68 -65 117 -65h4zM461 -203c68 24 113 90 113 164c0 90 -66 179 -173 190c19 -89 48 -242 60 -354zM74 28c0 -145 141 -247 264 -247
c1 0 47 0 82 6c-7 64 -29 203 -63 364c-79 -8 -124 -61 -124 -119c0 -44 25 -91 81 -123c5 -5 7 -10 7 -15c0 -11 -10 -22 -22 -22c-15 0 -126 62 -126 187c0 88 58 174 160 197c-14 58 -29 117 -46 175c-107 -121 -213 -243 -213 -403zM250 553c-29 96 -52 170 -52 346
c0 115 55 224 149 292c6 5 14 5 20 0c68 -80 133 -245 133 -358c0 -143 -86 -255 -180 -364c21 -68 39 -138 56 -207c2 0 7 1 13 1c155 0 256 -128 256 -261c0 -113 -74 -212 -180 -246c3 -35 5 -70 5 -105c0 -19 -1 -39 -2 -58c-7 -119 -88 -225 -202 -228l1 43
c93 2 153 92 159 191c1 18 2 37 2 55c0 31 -1 61 -4 92c-5 -1 -44 -8 -89 -8c-193 0 -333 180 -333 374c0 177 131 306 248 441zM428 916c0 34 1 66 -20 129c-99 -48 -162 -149 -162 -259c0 -52 12 -115 36 -194c80 97 146 198 146 324z" fill="currentColor"/>
</g>
<a style="color:inherit;" xlink:href="textedit:///home/kubuntu/Music/estudos-lilypond/death-come-near-me/dcnm-wizard.ly:24:2:3">
</a>
<a style="color:inherit;" xlink:href="textedit:///home/kubuntu/Music/estudos-lilypond/death-come-near-me/dcnm-wizard.ly:25:2:3">
<g transform="translate(19.2264, 12.5935)">
<path transform="scale(0.0040, -0.0040)" d="M196 117h117c0 -48 27 -94 72 -94c8 0 12 -5 12 -11s-4 -12 -12 -12c-44 0 -87 13 -131 13s-87 -13 -131 -13c-8 0 -12 6 -12 12s4 11 12 11c45 0 73 46 73 94zM-2 148c0 12 140 143 140 336c0 10 7 19 16 16c23 -7 47 -13 71 -13s48 6 71 13c14 4 23 -9 17 -16
l-284 -330h167v131c0 34 34 27 68 72c22 30 23 56 36 56c6 0 13 -5 13 -14v-245h72c10 0 15 -7 15 -14s-5 -15 -15 -15h-72v-8h-117v8h-167c-23 0 -31 14 -31 23z" fill="currentColor"/>
</g>
<g transform="translate(19.2264, 14.6095)">
<path transform="scale(0.0040, -0.0040)" d="M196 117h117c0 -48 27 -94 72 -94c8 0 12 -5 12 -11s-4 -12 -12 -12c-44 0 -87 13 -131 13s-87 -13 -131 -13c-8 0 -12 6 -12 12s4 11 12 11c45 0 73 46 73 94zM-2 148c0 12 140 143 140 336c0 10 7 19 16 16c23 -7 47 -13 71 -13s48 6 71 13c14 4 23 -9 17 -16
l-284 -330h167v131c0 34 34 27 68 72c22 30 23 56 36 56c6 0 13 -5 13 -14v-245h72c10 0 15 -7 15 -14s-5 -15 -15 -15h-72v-8h-117v8h-167c-23 0 -31 14 -31 23z" fill="currentColor"/>
</g>
</a>
<a style="color:inherit;" xlink:href="textedit:///home/kubuntu/Music/estudos-lilypond/death-come-near-me/dcnm-wizard.ly:41:4:5">
<g transform="translate(23.3811, 20.5935)">
<circle stroke-linejoin="round" stroke-linecap="round" fill="currentColor" stroke="currentColor" stroke-width="0" r="0.5500"/>
</g>
<g color="rgb(100.0000%, 100.0000%, 100.0000%)">
<g transform="translate(23.0568, 20.9052)">
<text font-family="sans-serif" font-weight="bold" font-size="0.8729" text-anchor="start" fill="currentColor">
<tspan>D</tspan>
</text>
</g>
</g>
</a>
<g transform="translate(15.0264, 22.5935)">
<path transform="scale(0.0040, -0.0040)" d="M266 -635h-6c-108 0 -195 88 -195 197c0 58 53 103 112 103c54 0 95 -47 95 -103c0 -52 -43 -95 -95 -95c-11 0 -21 2 -31 6c26 -39 68 -65 117 -65h4zM461 -203c68 24 113 90 113 164c0 90 -66 179 -173 190c19 -89 48 -242 60 -354zM74 28c0 -145 141 -247 264 -247
c1 0 47 0 82 6c-7 64 -29 203 -63 364c-79 -8 -124 -61 -124 -119c0 -44 25 -91 81 -123c5 -5 7 -10 7 -15c0 -11 -10 -22 -22 -22c-15 0 -126 62 -126 187c0 88 58 174 160 197c-14 58 -29 117 -46 175c-107 -121 -213 -243 -213 -403zM250 553c-29 96 -52 170 -52 346
c0 115 55 224 149 292c6 5 14 5 20 0c68 -80 133 -245 133 -358c0 -143 -86 -255 -180 -364c21 -68 39 -138 56 -207c2 0 7 1 13 1c155 0 256 -128 256 -261c0 -113 -74 -212 -180 -246c3 -35 5 -70 5 -105c0 -19 -1 -39 -2 -58c-7 -119 -88 -225 -202 -228l1 43
c93 2 153 92 159 191c1 18 2 37 2 55c0 31 -1 61 -4 92c-5 -1 -44 -8 -89 -8c-193 0 -333 180 -333 374c0 177 131 306 248 441zM428 916c0 34 1 66 -20 129c-99 -48 -162 -149 -162 -259c0 -52 12 -115 36 -194c80 97 146 198 146 324z" fill="currentColor"/>
</g>
<a style="color:inherit;" xlink:href="textedit:///home/kubuntu/Music/estudos-lilypond/death-come-near-me/dcnm-wizard.ly:24:2:3">
</a>
<g transform="translate(22.8961, 12.5935)">
<rect x="-0.0650" y="-0.8122" width="0.1300" height="3.3122" ry="0.0400" fill="currentColor"/>
</g>
<g transform="translate(22.8961, 21.5935)">
<rect x="-0.0650" y="-0.8122" width="0.1300" height="3.3122" ry="0.0400" fill="currentColor"/>
</g>
<g transform="translate(41.4017, 12.5935)">
<rect x="-0.0650" y="-0.7386" width="0.1300" height="3.2386" ry="0.0400" fill="currentColor"/>
</g>
<a style="color:inherit;" xlink:href="textedit:///home/kubuntu/Music/estudos-lilypond/death-come-near-me/dcnm-wizard.ly:33:9:10">
<g transform="translate(41.8867, 11.5935)">
<circle stroke-linejoin="round" stroke-linecap="round" fill="currentColor" stroke="currentColor" stroke-width="0" r="0.5500"/>
</g>
<g color="rgb(100.0000%, 100.0000%, 100.0000%)">
<g transform="translate(41.8867, 11.5935)">
<circle stroke-linejoin="round" stroke-linecap="round" fill="currentColor" stroke="currentColor" stroke-width="0" r="0.4200"/>
</g>
</g>
<g transform="translate(41.5623, 11.9052)">
<text font-family="sans-serif" font-weight="bold" font-size="0.8729" text-anchor="start" fill="currentColor">
<tspan>D</tspan>
</text>
</g>
</a>
<a style="color:inherit;" xlink:href="textedit:///home/kubuntu/Music/estudos-lilypond/death-come-near-me/dcnm-wizard.ly:33:5:6">
<g transform="translate(39.0886, 11.0935)">
<circle stroke-linejoin="round" stroke-linecap="round" fill="currentColor" stroke="currentColor" stroke-width="0" r="0.5500"/>
</g>
<g color="rgb(100.0000%, 100.0000%, 100.0000%)">
<g transform="translate(38.8496, 11.4052)">
<text font-family="sans-serif" font-weight="bold" font-size="0.8729" text-anchor="start" fill="currentColor">
<tspan>E</tspan>
</text>
</g>
</g>
</a>
<g transform="translate(38.6036, 12.5935)">
<rect x="-0.0650" y="-1.3122" width="0.1300" height="3.3122" ry="0.0400" fill="currentColor"/>
</g>
<g transform="translate(37.3886, 11.0935)">
<path transform="scale(0.0040, -0.0040)" d="M27 41l-1 -66v-11c0 -22 1 -44 4 -66c45 38 93 80 93 139c0 33 -14 67 -43 67c-31 0 -52 -30 -53 -63zM-15 -138l-12 595c8 5 18 8 27 8s19 -3 27 -8l-7 -345c25 21 58 34 91 34c52 0 89 -48 89 -102c0 -80 -86 -117 -147 -169c-15 -13 -24 -38 -45 -38
c-13 0 -23 11 -23 25z" fill="currentColor"/>
</g>
<a style="color:inherit;" xlink:href="textedit:///home/kubuntu/Music/estudos-lilypond/death-come-near-me/dcnm-wizard.ly:32:11:12">
<g transform="translate(31.8222, 12.0935)">
<circle stroke-linejoin="round" stroke-linecap="round" fill="currentColor" stroke="currentColor" stroke-width="0" r="0.5500"/>
</g>
<g color="rgb(100.0000%, 100.0000%, 100.0000%)">
<g transform="translate(31.5491, 12.4052)">
<text font-family="sans-serif" font-weight="bold" font-size="0.8729" text-anchor="start" fill="currentColor">
<tspan>C</tspan>
</text>
</g>
</g>
</a>
<g transform="translate(46.4834, 12.5935)">
<rect x="-0.0650" y="-1.8122" width="0.1300" height="3.3122" ry="0.0400" fill="currentColor"/>
</g>
<a style="color:inherit;" xlink:href="textedit:///home/kubuntu/Music/estudos-lilypond/death-come-near-me/dcnm-wizard.ly:41:12:13">
<g transform="translate(31.8222, 20.5935)">
<circle stroke-linejoin="round" stroke-linecap="round" fill="currentColor" stroke="currentColor" stroke-width="0" r="0.5500"/>
</g>
<g color="rgb(100.0000%, 100.0000%, 100.0000%)">
<g transform="translate(31.8222, 20.5935)">
<circle stroke-linejoin="round" stroke-linecap="round" fill="currentColor" stroke="currentColor" stroke-width="0" r="0.4200"/>
</g>
</g>
<g transform="translate(31.4979, 20.9052)">
<text font-family="sans-serif" font-weight="bold" font-size="0.8729" text-anchor="start" fill="currentColor">
<tspan>D</tspan>
</text>
</g>
</a>
<g transform="translate(31.3372, 12.5935)">
<rect x="-0.0650" y="-0.3122" width="0.1300" height="3.3122" ry="0.0400" fill="currentColor"/>
</g>
<g transform="translate(35.2056, 12.5935)">
<rect x="-0.0650" y="-0.8122" width="0.1300" height="3.3122" ry="0.0400" fill="currentColor"/>
</g>
<g transform="translate(31.3372, 21.5935)">
<rect x="-0.0650" y="-0.7386" width="0.1300" height="3.2386" ry="0.0400" fill="currentColor"/>
</g>
<a style="color:inherit;" xlink:href="textedit:///home/kubuntu/Music/estudos-lilypond/death-come-near-me/dcnm-wizard.ly:34:2:3">
<g transform="translate(46.9684, 10.5935)">
<circle stroke-linejoin="round" stroke-linecap="round" fill="currentColor" stroke="currentColor" stroke-width="0" r="0.5500"/>
</g>
<g color="rgb(100.0000%, 100.0000%, 100.0000%)">
<g transform="translate(46.7294, 10.9052)">
<text font-family="sans-serif" font-weight="bold" font-size="0.8729" text-anchor="start" fill="currentColor">
<tspan>F</tspan>
</text>
</g>
</g>
</a>
<a style="color:inherit;" xlink:href="textedit:///home/kubuntu/Music/estudos-lilypond/death-come-near-me/dcnm-wizard.ly:33:2:3">
<g transform="translate(35.6906, 11.5935)">
<circle stroke-linejoin="round" stroke-linecap="round" fill="currentColor" stroke="currentColor" stroke-width="0" r="0.5500"/>
</g>
<g color="rgb(100.0000%, 100.0000%, 100.0000%)">
<g transform="translate(35.3662, 11.9052)">
<text font-family="sans-serif" font-weight="bold" font-size="0.8729" text-anchor="start" fill="currentColor">
<tspan>D</tspan>
</text>
</g>
</g>
</a>
</svg>
