<svg xmlns="http://www.w3.org/2000/svg" xmlns:xlink="http://www.w3.org/1999/xlink" version="1.2" width="210.00mm" height="148.00mm" viewBox="0.0000 -0.0000 68.2866 48.1258">
<style type="text/css">
<![CDATA[
tspan { white-space: pre; }
]]>
</style>
<g transform="translate(22.2224, 4.9899)">
<text font-family="serif" font-weight="bold" font-size="3.4924" text-anchor="start" fill="currentColor">
<tspan>Presentiment</tspan>
</text>
</g>
<g transform="translate(24.5637, 8.4899)">
<text font-family="serif" font-weight="bold" font-size="2.4697" text-anchor="start" fill="currentColor">
<tspan>Chrono Trigger</tspan>
</text>
</g>
<g transform="translate(5.8531, 16.6185)">
<line stroke-linejoin="round" stroke-linecap="round" stroke-width="0.0718" stroke="currentColor" x1="0.0359" y1="0" x2="28.8689" y2="0"/>
</g>
<g transform="translate(5.8531, 15.6185)">
<line stroke-linejoin="round" stroke-linecap="round" stroke-width="0.0718" stroke="currentColor" x1="0.0359" y1="0" x2="28.8689" y2="0"/>
</g>
<g transform="translate(5.8531, 14.6185)">
<line stroke-linejoin="round" stroke-linecap="round" stroke-width="0.0718" stroke="currentColor" x1="0.0359" y1="0" x2="28.8689" y2="0"/>
</g>
<g transform="translate(5.8531, 13.6185)">
<line stroke-linejoin="round" stroke-linecap="round" stroke-width="0.0718" stroke="currentColor" x1="0.0359" y1="0" x2="28.8689" y2="0"/>
</g>
<g transform="translate(5.8531, 12.6185)">
<line stroke-linejoin="round" stroke-linecap="round" stroke-width="0.0718" stroke="currentColor" x1="0.0359" y1="0" x2="28.8689" y2="0"/>
</g>
<g transform="translate(2.2762, 11.6185)">
<rect x="24.2118" y="-0.0859" width="1.6078" height="0.1718" ry="0.0859" fill="currentColor"/>
</g>
<g transform="translate(2.2762, 10.6185)">
<rect x="22.1900" y="-0.0859" width="1.6078" height="0.1718" ry="0.0859" fill="currentColor"/>
</g>
<g transform="translate(2.2762, 11.6185)">
<rect x="22.1900" y="-0.0859" width="1.6078" height="0.1718" ry="0.0859" fill="currentColor"/>
</g>
<g transform="translate(2.2762, 11.6185)">
<rect x="19.6681" y="-0.0859" width="1.6078" height="0.1718" ry="0.0859" fill="currentColor"/>
</g>
<g transform="translate(28.3278, 14.6185)">
<rect x="0.0000" y="-2.0000" width="0.1365" height="4.0000" ry="0.0000" fill="currentColor"/>
</g>
<a style="color:inherit;" xlink:href="textedit:///home/kubuntu/Music/estudos-lilypond/chrono-trigger/presentment.ly:11:23:24">
<g transform="translate(22.7482, 11.6185)">
<circle stroke-linejoin="round" stroke-linecap="round" fill="currentColor" stroke="currentColor" stroke-width="0" r="0.5359"/>
</g>
<g color="rgb(100.0000%, 100.0000%, 100.0000%)">
<g transform="translate(22.4458, 11.9316)">
<text font-family="sans-serif" font-weight="bold" font-size="0.8734" text-anchor="start" fill="currentColor">
<tspan>A</tspan>
</text>
</g>
</g>
</a>
<g transform="translate(26.8027, 14.6185)">
<rect x="-0.0467" y="-2.8044" width="0.0934" height="3.3044" ry="0.0229" fill="currentColor"/>
</g>
<a style="color:inherit;" xlink:href="textedit:///home/kubuntu/Music/estudos-lilypond/chrono-trigger/presentment.ly:11:43:44">
<g transform="translate(27.2919, 11.6185)">
<circle stroke-linejoin="round" stroke-linecap="round" fill="currentColor" stroke="currentColor" stroke-width="0" r="0.5359"/>
</g>
<g color="rgb(100.0000%, 100.0000%, 100.0000%)">
<g transform="translate(26.9895, 11.9316)">
<text font-family="sans-serif" font-weight="bold" font-size="0.8734" text-anchor="start" fill="currentColor">
<tspan>A</tspan>
</text>
</g>
</g>
</a>
<g transform="translate(24.7808, 14.6185)">
<rect x="-0.0467" y="-4.3044" width="0.0934" height="4.3044" ry="0.0229" fill="currentColor"/>
</g>
<a style="color:inherit;" xlink:href="textedit:///home/kubuntu/Music/estudos-lilypond/chrono-trigger/presentment.ly:11:41:42">
<g transform="translate(25.2701, 10.1185)">
<circle stroke-linejoin="round" stroke-linecap="round" fill="currentColor" stroke="currentColor" stroke-width="0" r="0.5359"/>
</g>
<g color="rgb(100.0000%, 100.0000%, 100.0000%)">
<g transform="translate(24.9481, 10.4303)">
<text font-family="sans-serif" font-weight="bold" font-size="0.8734" text-anchor="start" fill="currentColor">
<tspan>D</tspan>
</text>
</g>
</g>
</a>
<g transform="translate(22.2590, 14.6185)">
<rect x="-0.0467" y="-2.8044" width="0.0934" height="3.3044" ry="0.0229" fill="currentColor"/>
</g>
<a style="color:inherit;" xlink:href="textedit:///home/kubuntu/Music/estudos-lilypond/chrono-trigger/presentment.ly:11:27:28">
<g transform="translate(28.1691, 18.7374)">
<text font-family="serif" font-style="italic" font-size="1.7462" text-anchor="start" fill="currentColor">
<tspan>3</tspan>
</text>
</g>
</a>
<a style="color:inherit;" xlink:href="textedit:///home/kubuntu/Music/estudos-lilypond/chrono-trigger/presentment.ly:11:27:28">
<g transform="translate(24.7342, 18.0070)">
<line stroke-linejoin="round" stroke-linecap="round" stroke-width="0.1149" stroke="currentColor" x1="8.0453" y1="0.2195" x2="8.0453" y2="-0.4805"/>
</g>
<g transform="translate(24.7342, 18.0070)">
<line stroke-linejoin="round" stroke-linecap="round" stroke-width="0.1149" stroke="currentColor" x1="-0.1999" y1="-0.0055" x2="-0.1999" y2="-0.7055"/>
</g>
<g transform="translate(24.7342, 18.0070)">
<line stroke-linejoin="round" stroke-linecap="round" stroke-width="0.1149" stroke="currentColor" x1="8.0453" y1="0.2195" x2="5.0101" y2="0.1367"/>
</g>
<g transform="translate(24.7342, 18.0070)">
<line stroke-linejoin="round" stroke-linecap="round" stroke-width="0.1149" stroke="currentColor" x1="-0.1999" y1="-0.0055" x2="3.0353" y2="0.0828"/>
</g>
</a>
<a style="color:inherit;" xlink:href="textedit:///home/kubuntu/Music/estudos-lilypond/chrono-trigger/presentment.ly:11:4:5">
<g transform="translate(19.3744, 18.7349)">
<text font-family="serif" font-style="italic" font-size="1.7462" text-anchor="start" fill="currentColor">
<tspan>3</tspan>
</text>
</g>
</a>
<a style="color:inherit;" xlink:href="textedit:///home/kubuntu/Music/estudos-lilypond/chrono-trigger/presentment.ly:11:4:5">
<g transform="translate(17.4186, 18.2185)">
<line stroke-linejoin="round" stroke-linecap="round" stroke-width="0.1149" stroke="currentColor" x1="5.0869" y1="-0.2228" x2="5.0869" y2="-0.9228"/>
</g>
<g transform="translate(17.4186, 18.2185)">
<line stroke-linejoin="round" stroke-linecap="round" stroke-width="0.1149" stroke="currentColor" x1="-0.1998" y1="0.0088" x2="-0.1998" y2="-0.6912"/>
</g>
<g transform="translate(17.4186, 18.2185)">
<line stroke-linejoin="round" stroke-linecap="round" stroke-width="0.1149" stroke="currentColor" x1="5.0869" y1="-0.2228" x2="3.5302" y2="-0.1546"/>
</g>
<g transform="translate(17.4186, 18.2185)">
<line stroke-linejoin="round" stroke-linecap="round" stroke-width="0.1149" stroke="currentColor" x1="-0.1998" y1="0.0088" x2="1.5566" y2="-0.0682"/>
</g>
</a>
<g transform="translate(32.5328, 14.6185)">
<rect x="-0.0467" y="-0.8044" width="0.0934" height="3.3044" ry="0.0229" fill="currentColor"/>
</g>
<a style="color:inherit;" xlink:href="textedit:///home/kubuntu/Music/estudos-lilypond/chrono-trigger/presentment.ly:11:47:48">
<g transform="translate(33.0221, 13.6185)">
<circle stroke-linejoin="round" stroke-linecap="round" fill="currentColor" stroke="currentColor" stroke-width="0" r="0.5359"/>
</g>
<g color="rgb(100.0000%, 100.0000%, 100.0000%)">
<g transform="translate(32.7001, 13.9303)">
<text font-family="sans-serif" font-weight="bold" font-size="0.8734" text-anchor="start" fill="currentColor">
<tspan>D</tspan>
</text>
</g>
</g>
</a>
<g transform="translate(30.5110, 14.6185)">
<rect x="-0.0467" y="-2.3044" width="0.0934" height="3.3044" ry="0.0229" fill="currentColor"/>
</g>
<a style="color:inherit;" xlink:href="textedit:///home/kubuntu/Music/estudos-lilypond/chrono-trigger/presentment.ly:11:45:46">
<g transform="translate(31.0002, 12.1185)">
<circle stroke-linejoin="round" stroke-linecap="round" fill="currentColor" stroke="currentColor" stroke-width="0" r="0.5359"/>
</g>
<g color="rgb(100.0000%, 100.0000%, 100.0000%)">
<g transform="translate(30.6881, 12.4303)">
<text font-family="sans-serif" font-weight="bold" font-size="0.8734" text-anchor="start" fill="currentColor">
<tspan>G</tspan>
</text>
</g>
</g>
</a>
<a style="color:inherit;" xlink:href="textedit:///home/kubuntu/Music/estudos-lilypond/chrono-trigger/header.ly:14:2:3">
</a>
<a style="color:inherit;" xlink:href="textedit:///home/kubuntu/Music/estudos-lilypond/chrono-trigger/header.ly:15:2:3">
<g transform="translate(10.8531, 14.6185)">
<path transform="scale(0.0040, -0.0040)" d="M250 261c117 0 180 -102 180 -162c0 -40 -32 -74 -70 -74c-31 0 -76 25 -76 77c0 39 28 78 74 78c2 0 10 1 18 -1c-29 37 -76 60 -126 60c-106 0 -113 -73 -113 -185v-54v-54c0 -112 7 -185 113 -185c82 0 145 68 164 151c1 6 6 9 10 9c6 0 11 -4 11 -11
c0 -23 -51 -171 -185 -171c-59 0 -250 19 -250 261c0 62 18 261 250 261z" fill="currentColor"/>
</g>
</a>
<g transform="translate(6.6531, 15.6185)">
<path transform="scale(0.0040, -0.0040)" d="M264 -594c47 0 165 26 165 246c0 32 -2 64 -5 96c-5 -1 -44 -8 -89 -8c-193 0 -333 178 -333 372c0 178 133 306 251 440c-27 93 -49 170 -49 345c0 116 55 226 150 295c5 4 11 4 16 0c67 -81 132 -246 132 -359c0 -144 -87 -256 -183 -365c20 -69 39 -138 55 -208
c2 0 7 1 15 1c154 0 254 -127 254 -259c0 -112 -73 -212 -180 -245c3 -36 5 -72 5 -108c0 -19 0 -37 -1 -56c-7 -120 -89 -226 -206 -226c-108 0 -195 87 -195 195c0 58 53 104 112 104c54 0 95 -48 95 -104c0 -52 -43 -95 -95 -95c-12 0 -24 4 -35 9c26 -41 70 -70 121 -70
zM459 -205c71 24 117 92 117 166c0 92 -69 184 -179 193c1 -5 45 -212 62 -359zM71 31c0 -146 142 -251 267 -251c1 0 46 0 82 6c-7 63 -28 201 -64 367c-79 -9 -125 -62 -125 -121c0 -44 26 -92 82 -124c4 -4 7 -9 7 -14c0 -11 -9 -21 -20 -21c-14 0 -125 62 -125 186
c0 88 57 173 158 196c-14 60 -30 119 -46 178c-108 -121 -216 -242 -216 -402zM411 1050c-99 -50 -161 -151 -161 -262c0 -59 11 -123 33 -200c82 97 149 198 149 325c0 35 0 69 -21 137z" fill="currentColor"/>
</g>
<a style="color:inherit;" xlink:href="textedit:///home/kubuntu/Music/estudos-lilypond/chrono-trigger/presentment.ly:11:2:3">
<g transform="translate(14.5667, 14.6185)">
<path transform="scale(0.0040, -0.0040)" d="M-4 79c0 59 125 82 125 181c0 24 -8 47 -24 67l-39 46c-2 3 -3 6 -3 9c0 7 7 14 14 14c3 0 7 -1 10 -5l152 -182c7 -8 10 -17 10 -25c0 -59 -125 -82 -125 -181c0 -24 8 -47 24 -67l87 -104c2 -3 3 -5 3 -8c0 -7 -7 -14 -14 -14c-6 0 -48 48 -112 48
c-14 0 -52 -1 -52 -70c0 -35 11 -75 28 -96c6 -7 -4 -16 -10 -9c-46 55 -93 150 -93 204c0 12 0 40 36 40c34 0 85 -15 130 -37l-137 164c-7 8 -10 17 -10 25z" fill="currentColor"/>
</g>
</a>
<g transform="translate(19.9872, 14.6185)">
<rect x="-0.0467" y="-2.3044" width="0.0934" height="3.3044" ry="0.0229" fill="currentColor"/>
</g>
<a style="color:inherit;" xlink:href="textedit:///home/kubuntu/Music/estudos-lilypond/chrono-trigger/presentment.ly:11:21:22">
<g transform="translate(20.4764, 12.1185)">
<circle stroke-linejoin="round" stroke-linecap="round" fill="currentColor" stroke="currentColor" stroke-width="0" r="0.5359"/>
</g>
<g color="rgb(100.0000%, 100.0000%, 100.0000%)">
<g transform="translate(20.1642, 12.4303)">
<text font-family="sans-serif" font-weight="bold" font-size="0.8734" text-anchor="start" fill="currentColor">
<tspan>G</tspan>
</text>
</g>
</g>
</a>
<g transform="translate(17.4653, 14.6185)">
<rect x="-0.0467" y="-0.8044" width="0.0934" height="3.3044" ry="0.0229" fill="currentColor"/>
</g>
<a style="color:inherit;" xlink:href="textedit:///home/kubuntu/Music/estudos-lilypond/chrono-trigger/presentment.ly:11:18:19">
<g transform="translate(17.9546, 13.6185)">
<circle stroke-linejoin="round" stroke-linecap="round" fill="currentColor" stroke="currentColor" stroke-width="0" r="0.5359"/>
</g>
<g color="rgb(100.0000%, 100.0000%, 100.0000%)">
<g transform="translate(17.6326, 13.9303)">
<text font-family="sans-serif" font-weight="bold" font-size="0.8734" text-anchor="start" fill="currentColor">
<tspan>D</tspan>
</text>
</g>
</g>
</a>
</svg>
